<svg xmlns="http://www.w3.org/2000/svg" xmlns:xlink="http://www.w3.org/1999/xlink" version="1.1" x="0px" y="0px" viewBox="0 0 100 125" style="enable-background:new 0 0 100 100;" xml:space="preserve"><path d="M86.1,55.5c0-4.3-3.5-7.7-7.7-7.7s-7.7,3.5-7.7,7.7s3.5,7.7,7.7,7.7S86.1,59.8,86.1,55.5z M73,55.5c0-2.9,2.4-5.3,5.3-5.3  s5.3,2.4,5.3,5.3c0,3-2.4,5.3-5.3,5.3C75.4,60.9,73,58.5,73,55.5z"/><path d="M82.3,70.4c-4.3,0-7.7,3.5-7.7,7.7s3.5,7.7,7.7,7.7s7.7-3.5,7.7-7.7S86.5,70.4,82.3,70.4z M82.3,83.4c-3,0-5.3-2.4-5.3-5.3  s2.4-5.3,5.3-5.3s5.3,2.4,5.3,5.3S85.2,83.4,82.3,83.4z"/><path d="M51.4,50.1c-2.5,0.1-4.8,1.2-6.5,3s-2.6,4.2-2.4,6.7c0,0.6,0.6,1.1,1.2,1.1c0,0,0,0,0.1,0c0.7,0,1.2-0.6,1.1-1.2  c-0.1-1.9,0.6-3.6,1.8-5c1.3-1.4,3-2.2,4.8-2.3c0.7,0,1.2-0.6,1.1-1.2C52.6,50.6,52.1,50,51.4,50.1z"/><path d="M52.3,45.7c-8.1,0-14.6,6.6-14.6,14.6S44.2,75,52.3,75s14.6-6.6,14.6-14.6S60.4,45.7,52.3,45.7z M52.3,72.6  c-6.8,0-12.3-5.5-12.3-12.3S45.5,48,52.3,48s12.3,5.5,12.3,12.3S59.1,72.6,52.3,72.6z"/><path d="M57.4,29.5c-0.1-1.9,0.6-3.6,1.8-5c1.3-1.4,3-2.2,4.8-2.3c0.7,0,1.2-0.6,1.1-1.2c0-0.7-0.5-1.2-1.2-1.1  c-2.5,0.1-4.8,1.2-6.5,3s-2.6,4.2-2.4,6.7c0,0.6,0.6,1.1,1.2,1.1c0,0,0,0,0.1,0C56.9,30.7,57.4,30.2,57.4,29.5z"/><path d="M64.9,44.2c8.1,0,14.6-6.6,14.6-14.6S73,14.9,64.9,14.9s-14.6,6.6-14.6,14.6S56.8,44.2,64.9,44.2z M64.9,17.3  c6.8,0,12.3,5.5,12.3,12.3s-5.5,12.3-12.3,12.3s-12.3-5.5-12.3-12.3S58.1,17.3,64.9,17.3z"/><path d="M22,23.9c0.4-0.5,0.4-1.2-0.1-1.7c-0.5-0.4-1.2-0.4-1.7,0.1c-6,6.6-5.5,16.8,1,22.8c0.2,0.2,0.5,0.3,0.8,0.3  s0.6-0.1,0.9-0.4c0.4-0.5,0.4-1.2-0.1-1.7C17.3,38.1,16.9,29.4,22,23.9z"/><path d="M48.8,33.6c0-10.7-8.7-19.4-19.4-19.4S10,22.9,10,33.6S18.7,53,29.4,53S48.8,44.3,48.8,33.6z M29.4,50.6  c-9.4,0-17-7.6-17-17s7.6-17,17-17s17,7.6,17,17S38.8,50.6,29.4,50.6z"/><text x="0" y="115" fill="#000000" font-size="5px" font-weight="bold" font-family="'Helvetica Neue', Helvetica, Arial-Unicode, Arial, Sans-serif">Created by Fithratul Hafizd</text><text x="0" y="120" fill="#000000" font-size="5px" font-weight="bold" font-family="'Helvetica Neue', Helvetica, Arial-Unicode, Arial, Sans-serif">from the Noun Project</text></svg>