<svg xmlns="http://www.w3.org/2000/svg" xmlns:xlink="http://www.w3.org/1999/xlink" version="1.1" x="0px" y="0px" viewBox="0 0 100 125" style="enable-background:new 0 0 100 100;" xml:space="preserve"><path d="M31.1,44.7c8.4,0,15.2-6.8,15.2-15.2c0-8.4-6.8-15.2-15.2-15.2c-8.4,0-15.2,6.8-15.2,15.2C15.9,37.9,22.7,44.7,31.1,44.7z   M31.1,17.2c6.7,0,12.2,5.5,12.2,12.2s-5.5,12.2-12.2,12.2c-6.7,0-12.2-5.5-12.2-12.2S24.3,17.2,31.1,17.2z"/><path d="M31.9,23.8c2.7,0,4.9,2.2,4.9,4.9c0,0.8,0.7,1.5,1.5,1.5c0.8,0,1.5-0.7,1.5-1.5c0-4.3-3.5-7.9-7.9-7.9  c-0.8,0-1.5,0.7-1.5,1.5C30.4,23.1,31.1,23.8,31.9,23.8z"/><path d="M59.3,62.5c5.3,0,9.7-4.4,9.7-9.8c0-5.4-4.3-9.8-9.7-9.8c-5.3,0-9.7,4.4-9.7,9.8C49.6,58.1,53.9,62.5,59.3,62.5z M59.3,45.9  c3.7,0,6.7,3.1,6.7,6.8c0,3.8-3,6.8-6.7,6.8s-6.7-3.1-6.7-6.8C52.6,48.9,55.6,45.9,59.3,45.9z"/><path d="M51.1,76.1c3.2,0,5.8-2.6,5.8-5.9c0-3.2-2.6-5.9-5.8-5.9c-3.2,0-5.8,2.6-5.8,5.9C45.3,73.5,47.9,76.1,51.1,76.1z M51.1,67.4  c1.5,0,2.8,1.3,2.8,2.9c0,1.6-1.2,2.9-2.8,2.9c-1.5,0-2.8-1.3-2.8-2.9C48.3,68.7,49.6,67.4,51.1,67.4z"/><path d="M41,78.3c-3.2,0-5.8,2.6-5.8,5.9S37.8,90,41,90c3.2,0,5.8-2.6,5.8-5.9S44.2,78.3,41,78.3z M41,87c-1.5,0-2.8-1.3-2.8-2.9  c0-1.6,1.2-2.9,2.8-2.9c1.5,0,2.8,1.3,2.8,2.9C43.8,85.7,42.5,87,41,87z"/><path d="M39.3,48.1c0,2.6,2.1,4.6,4.6,4.6s4.6-2.1,4.6-4.6c0-2.6-2.1-4.6-4.6-4.6S39.3,45.6,39.3,48.1z M45.4,48.1  c0,0.9-0.7,1.6-1.6,1.6c-0.9,0-1.6-0.7-1.6-1.6c0-0.9,0.7-1.6,1.6-1.6C44.7,46.5,45.4,47.3,45.4,48.1z"/><path d="M66.8,71.3c-3.2,0-5.8,2.6-5.8,5.9s2.6,5.9,5.8,5.9c3.2,0,5.8-2.6,5.8-5.9S70,71.3,66.8,71.3z M66.8,80  c-1.5,0-2.8-1.3-2.8-2.9s1.2-2.9,2.8-2.9c1.5,0,2.8,1.3,2.8,2.9S68.4,80,66.8,80z"/><path d="M76.9,54.8c-4,0-7.3,3.3-7.3,7.4c0,4.1,3.3,7.4,7.3,7.4s7.3-3.3,7.3-7.4C84.1,58.1,80.9,54.8,76.9,54.8z M76.9,66.5  c-2.4,0-4.3-2-4.3-4.4c0-2.4,1.9-4.4,4.3-4.4c2.4,0,4.3,2,4.3,4.4C81.1,64.6,79.2,66.5,76.9,66.5z"/><path d="M71,40.7c0,3.2,2.6,5.9,5.8,5.9c3.2,0,5.8-2.6,5.8-5.9c0-3.2-2.6-5.9-5.8-5.9C73.5,34.8,71,37.4,71,40.7z M79.5,40.7  c0,1.6-1.2,2.9-2.8,2.9c-1.5,0-2.8-1.3-2.8-2.9c0-1.6,1.2-2.9,2.8-2.9C78.3,37.8,79.5,39.1,79.5,40.7z"/><path d="M55.9,54.3c0.8,0,1.5-0.7,1.5-1.5c0-1.3,1-2.4,2.3-2.4c0.8,0,1.5-0.7,1.5-1.5s-0.7-1.5-1.5-1.5c-2.9,0-5.3,2.4-5.3,5.4  C54.4,53.7,55.1,54.3,55.9,54.3z"/><path d="M29.2,76.9c7.3,0,13.3-6.1,13.3-13.5c0-7.5-6-13.5-13.3-13.5s-13.3,6.1-13.3,13.5C15.9,70.9,21.8,76.9,29.2,76.9z   M29.2,52.9c5.7,0,10.3,4.7,10.3,10.5s-4.6,10.5-10.3,10.5s-10.3-4.7-10.3-10.5S23.5,52.9,29.2,52.9z"/><path d="M23.9,64.9c0.8,0,1.5-0.7,1.5-1.5c0-2.3,1.8-4.1,4-4.1c0.8,0,1.5-0.7,1.5-1.5s-0.7-1.5-1.5-1.5c-3.9,0-7,3.2-7,7.1  C22.4,64.2,23.1,64.9,23.9,64.9z"/><path d="M64,37.1c7.3,0,13.3-6.1,13.3-13.5c0-7.5-6-13.5-13.3-13.5c-7.3,0-13.3,6.1-13.3,13.5C50.7,31,56.6,37.1,64,37.1z M64,13  c5.7,0,10.3,4.7,10.3,10.5c0,5.8-4.6,10.5-10.3,10.5c-5.7,0-10.3-4.7-10.3-10.5C53.7,17.7,58.3,13,64,13z"/><path d="M64.7,31.3c3.9,0,7-3.2,7-7.1c0-0.8-0.7-1.5-1.5-1.5c-0.8,0-1.5,0.7-1.5,1.5c0,2.3-1.8,4.1-4,4.1c-0.8,0-1.5,0.7-1.5,1.5  C63.2,30.7,63.9,31.3,64.7,31.3z"/><text x="0" y="115" fill="#000000" font-size="5px" font-weight="bold" font-family="'Helvetica Neue', Helvetica, Arial-Unicode, Arial, Sans-serif">Created by Rahmad romadoni</text><text x="0" y="120" fill="#000000" font-size="5px" font-weight="bold" font-family="'Helvetica Neue', Helvetica, Arial-Unicode, Arial, Sans-serif">from the Noun Project</text></svg>