<svg xmlns="http://www.w3.org/2000/svg" version="1.1" viewBox="-5.0 -10.0 110.0 135.0">
 <path d="m6.6797 78.574c-0.42969-0.55078-0.6875-1.2461-0.6875-2 0-1.793 1.457-3.25 3.25-3.25 1.0703 0 2.0195 0.51562 2.6094 1.3164 0.42969 0.55078 0.6875 1.2461 0.6875 2 0 1.793-1.457 3.25-3.25 3.25-1.0703 0-2.0195-0.51562-2.6094-1.3164zm3.5938-2.7305c-0.23047-0.28516-0.58594-0.46875-0.98047-0.46875-0.69922 0-1.2656 0.56641-1.2656 1.2656 0 0.27344 0.085937 0.52734 0.23438 0.73438 0.23047 0.28516 0.58594 0.46875 0.98047 0.46875 0.69922 0 1.2656-0.56641 1.2656-1.2656 0-0.27344-0.085937-0.52734-0.23437-0.73438zm17.527-61.578c3.7812 0 6.8477 3.0703 6.8477 6.8477 0 3.7812-3.0703 6.8477-6.8477 6.8477-3.7812 0-6.8477-3.0703-6.8477-6.8477 0-3.7812 3.0703-6.8477 6.8477-6.8477zm0 1.9844c-2.6875 0-4.8672 2.1797-4.8672 4.8672s2.1797 4.8672 4.8672 4.8672 4.8672-2.1797 4.8672-4.8672-2.1797-4.8672-4.8672-4.8672zm-17.738-13.547c3.7812 0 6.8477 3.0703 6.8477 6.8477 0 3.7812-3.0703 6.8477-6.8477 6.8477-3.7812 0-6.8477-3.0703-6.8477-6.8477 0-3.7812 3.0703-6.8477 6.8477-6.8477zm0 1.9844c-2.6875 0-4.8672 2.1797-4.8672 4.8672s2.1797 4.8672 4.8672 4.8672 4.8672-2.1797 4.8672-4.8672-2.1797-4.8672-4.8672-4.8672zm3.9688 27.672c3.7812 0 6.8477 3.0703 6.8477 6.8477 0 3.7812-3.0703 6.8477-6.8477 6.8477-3.7812 0-6.8477-3.0703-6.8477-6.8477 0-3.7812 3.0703-6.8477 6.8477-6.8477zm0 1.9844c-2.6875 0-4.8672 2.1797-4.8672 4.8672s2.1797 4.8672 4.8672 4.8672 4.8672-2.1797 4.8672-4.8672-2.1797-4.8672-4.8672-4.8672zm73.719-30.637c3.7812 0 6.8477 3.0703 6.8477 6.8477 0 3.7812-3.0703 6.8477-6.8477 6.8477-3.7812 0-6.8477-3.0703-6.8477-6.8477 0-3.7812 3.0703-6.8477 6.8477-6.8477zm0 1.9844c-2.6875 0-4.8672 2.1797-4.8672 4.8672s2.1797 4.8672 4.8672 4.8672 4.8672-2.1797 4.8672-4.8672-2.1797-4.8672-4.8672-4.8672zm-40.363-2.75c3.7812 0 6.8477 3.0703 6.8477 6.8477 0 3.7812-3.0703 6.8477-6.8477 6.8477-3.7812 0-6.8477-3.0703-6.8477-6.8477 0-3.7812 3.0703-6.8477 6.8477-6.8477zm0 1.9844c-2.6875 0-4.8672 2.1797-4.8672 4.8672s2.1797 4.8672 4.8672 4.8672 4.8672-2.1797 4.8672-4.8672-2.1797-4.8672-4.8672-4.8672zm-2.3164 19.613c3.2461 0 5.8828 2.6367 5.8828 5.8828s-2.6367 5.8828-5.8828 5.8828c-3.2461 0-5.8828-2.6367-5.8828-5.8828s2.6367-5.8828 5.8828-5.8828zm0 1.9844c-2.1523 0-3.9023 1.7461-3.9023 3.9023 0 2.1523 1.7461 3.9023 3.9023 3.9023 2.1523 0 3.9023-1.7461 3.9023-3.9023 0-2.1523-1.7461-3.9023-3.9023-3.9023zm27.324-10.273c2.4336 0 4.4102 1.9766 4.4102 4.4102s-1.9766 4.4102-4.4102 4.4102c-2.4336 0-4.4102-1.9766-4.4102-4.4102s1.9766-4.4102 4.4102-4.4102zm0 1.9844c-1.3398 0-2.4258 1.0859-2.4258 2.4258s1.0859 2.4258 2.4258 2.4258c1.3398 0 2.4258-1.0859 2.4258-2.4258s-1.0859-2.4258-2.4258-2.4258zm-48.816 35.125c2.4336 0 4.4102 1.9766 4.4102 4.4102 0 2.4336-1.9766 4.4102-4.4102 4.4102s-4.4102-1.9766-4.4102-4.4102c0-2.4336 1.9766-4.4102 4.4102-4.4102zm0 1.9844c-1.3398 0-2.4258 1.0859-2.4258 2.4258 0 1.3398 1.0859 2.4258 2.4258 2.4258s2.4258-1.0859 2.4258-2.4258c0-1.3398-1.0859-2.4258-2.4258-2.4258zm41.559-9.375c2.4336 0 4.4102 1.9766 4.4102 4.4102s-1.9766 4.4102-4.4102 4.4102c-2.4336 0-4.4102-1.9766-4.4102-4.4102s1.9766-4.4102 4.4102-4.4102zm0 1.9844c-1.3398 0-2.4258 1.0859-2.4258 2.4258s1.0859 2.4258 2.4258 2.4258c1.3398 0 2.4258-1.0859 2.4258-2.4258s-1.0859-2.4258-2.4258-2.4258zm24.328 23.832c2.4336 0 4.4102 1.9766 4.4102 4.4102 0 2.4336-1.9766 4.4102-4.4102 4.4102s-4.4102-1.9766-4.4102-4.4102c0-2.4336 1.9766-4.4102 4.4102-4.4102zm0 1.9844c-1.3398 0-2.4258 1.0859-2.4258 2.4258 0 1.3398 1.0859 2.4258 2.4258 2.4258s2.4258-1.0859 2.4258-2.4258c0-1.3398-1.0859-2.4258-2.4258-2.4258zm-54.598-35.336c2.0859 0 3.7812 1.6953 3.7812 3.7812 0 2.0859-1.6953 3.7812-3.7812 3.7812-2.0859 0-3.7812-1.6953-3.7812-3.7812 0-2.0859 1.6953-3.7812 3.7812-3.7812zm0 1.9844c-0.99219 0-1.7969 0.80469-1.7969 1.7969 0 0.99219 0.80469 1.7969 1.7969 1.7969 0.99219 0 1.7969-0.80469 1.7969-1.7969 0-0.99219-0.80469-1.7969-1.7969-1.7969zm53.715-14.281c2.0859 0 3.7812 1.6953 3.7812 3.7812 0 2.0859-1.6953 3.7812-3.7812 3.7812-2.0859 0-3.7812-1.6953-3.7812-3.7812 0-2.0859 1.6953-3.7812 3.7812-3.7812zm0 1.9844c-0.99219 0-1.7969 0.80469-1.7969 1.7969 0 0.99219 0.80469 1.7969 1.7969 1.7969 0.99219 0 1.7969-0.80469 1.7969-1.7969 0-0.99219-0.80469-1.7969-1.7969-1.7969zm-29.137 4.5898c1.793 0 3.25 1.457 3.25 3.25 0 1.793-1.457 3.25-3.25 3.25-1.793 0-3.25-1.457-3.25-3.25 0-1.793 1.457-3.25 3.25-3.25zm0 1.9844c-0.69922 0-1.2656 0.56641-1.2656 1.2656 0 0.69922 0.56641 1.2656 1.2656 1.2656 0.69922 0 1.2656-0.56641 1.2656-1.2656 0-0.69922-0.56641-1.2656-1.2656-1.2656zm-14.074 53.883c1.793 0 3.25 1.457 3.25 3.25s-1.457 3.25-3.25 3.25c-1.793 0-3.25-1.457-3.25-3.25s1.457-3.25 3.25-3.25zm0 1.9844c-0.69922 0-1.2656 0.56641-1.2656 1.2656s0.56641 1.2656 1.2656 1.2656c0.69922 0 1.2656-0.56641 1.2656-1.2656s-0.56641-1.2656-1.2656-1.2656zm-7.2109-30.328c1.793 0 3.25 1.457 3.25 3.25s-1.457 3.25-3.25 3.25c-1.793 0-3.25-1.457-3.25-3.25s1.457-3.25 3.25-3.25zm0 1.9844c-0.69922 0-1.2656 0.56641-1.2656 1.2656s0.56641 1.2656 1.2656 1.2656c0.69922 0 1.2656-0.56641 1.2656-1.2656s-0.56641-1.2656-1.2656-1.2656zm42.523-3.1641c1.793 0 3.25 1.457 3.25 3.25 0 1.793-1.457 3.25-3.25 3.25-1.793 0-3.25-1.457-3.25-3.25 0-1.793 1.457-3.25 3.25-3.25zm0 1.9844c-0.69922 0-1.2656 0.56641-1.2656 1.2656 0 0.69922 0.56641 1.2656 1.2656 1.2656 0.69922 0 1.2656-0.56641 1.2656-1.2656 0-0.69922-0.56641-1.2656-1.2656-1.2656zm-6.4414-22.465c1.793 0 3.25 1.457 3.25 3.25s-1.457 3.25-3.25 3.25c-1.793 0-3.25-1.457-3.25-3.25s1.457-3.25 3.25-3.25zm0 1.9844c-0.69922 0-1.2656 0.56641-1.2656 1.2656s0.56641 1.2656 1.2656 1.2656c0.69922 0 1.2656-0.56641 1.2656-1.2656s-0.56641-1.2656-1.2656-1.2656zm-16.551 23.59c1.793 0 3.25 1.457 3.25 3.25 0 1.793-1.457 3.25-3.25 3.25-1.793 0-3.25-1.457-3.25-3.25 0-1.793 1.457-3.25 3.25-3.25zm0 1.9844c-0.69922 0-1.2656 0.56641-1.2656 1.2656 0 0.69922 0.56641 1.2656 1.2656 1.2656 0.69922 0 1.2656-0.56641 1.2656-1.2656 0-0.69922-0.56641-1.2656-1.2656-1.2656zm-12.363 8.7773c1.5938 0 2.8867 1.293 2.8867 2.8867s-1.293 2.8867-2.8867 2.8867-2.8867-1.293-2.8867-2.8867 1.293-2.8867 2.8867-2.8867zm0 1.9844c-0.5 0-0.90625 0.40625-0.90625 0.90625s0.40625 0.90625 0.90625 0.90625 0.90625-0.40625 0.90625-0.90625-0.40625-0.90625-0.90625-0.90625zm12.445 5.8555c1.4727 0 2.6641 1.1953 2.6641 2.6641s-1.1953 2.6641-2.6641 2.6641-2.6641-1.1953-2.6641-2.6641 1.1953-2.6641 2.6641-2.6641zm0 1.9844c-0.375 0-0.68359 0.30469-0.68359 0.68359 0 0.375 0.30469 0.68359 0.68359 0.68359 0.375 0 0.68359-0.30469 0.68359-0.68359 0-0.375-0.30469-0.68359-0.68359-0.68359zm29.777 3.8906c1.4688 0 2.6641 1.1953 2.6641 2.6641 0 1.4727-1.1953 2.6641-2.6641 2.6641-1.4727 0-2.6641-1.1953-2.6641-2.6641s1.1953-2.6641 2.6641-2.6641zm0 1.9844c-0.375 0-0.68359 0.30469-0.68359 0.68359 0 0.375 0.30469 0.68359 0.68359 0.68359 0.375 0 0.68359-0.30469 0.68359-0.68359 0-0.375-0.30469-0.68359-0.68359-0.68359zm-19.457-85.234c1.4688 0 2.6641 1.1953 2.6641 2.6641 0 1.4727-1.1953 2.6641-2.6641 2.6641s-2.6641-1.1953-2.6641-2.6641 1.1953-2.6641 2.6641-2.6641zm0 1.9844c-0.375 0-0.68359 0.30469-0.68359 0.68359 0 0.375 0.30469 0.68359 0.68359 0.68359 0.375 0 0.68359-0.30469 0.68359-0.68359 0-0.375-0.30469-0.68359-0.68359-0.68359zm23.023 40.516c1.4688 0 2.6641 1.1953 2.6641 2.6641s-1.1953 2.6641-2.6641 2.6641-2.6641-1.1953-2.6641-2.6641c0-1.4727 1.1953-2.6641 2.6641-2.6641zm0 1.9844c-0.375 0-0.68359 0.30469-0.68359 0.68359 0 0.375 0.30469 0.68359 0.68359 0.68359 0.375 0 0.68359-0.30469 0.68359-0.68359 0-0.375-0.30469-0.68359-0.68359-0.68359zm-81.281 6.2969c1.4727 0 2.6641 1.1953 2.6641 2.6641 0 1.4727-1.1953 2.6641-2.6641 2.6641s-2.6641-1.1953-2.6641-2.6641 1.1953-2.6641 2.6641-2.6641zm0 1.9844c-0.375 0-0.68359 0.30469-0.68359 0.68359 0 0.375 0.30469 0.68359 0.68359 0.68359 0.375 0 0.68359-0.30469 0.68359-0.68359 0-0.375-0.30469-0.68359-0.68359-0.68359zm6.7969 32.137c1.4688 0 2.6641 1.1953 2.6641 2.6641s-1.1953 2.6641-2.6641 2.6641c-1.4727 0-2.6641-1.1953-2.6641-2.6641 0-1.4727 1.1953-2.6641 2.6641-2.6641zm0 1.9844c-0.375 0-0.68359 0.30469-0.68359 0.68359 0 0.375 0.30469 0.68359 0.68359 0.68359 0.375 0 0.68359-0.30469 0.68359-0.68359 0-0.375-0.30469-0.68359-0.68359-0.68359zm13.887-11.953c1.5938 0 2.8867 1.293 2.8867 2.8867s-1.293 2.8867-2.8867 2.8867-2.8867-1.293-2.8867-2.8867 1.293-2.8867 2.8867-2.8867zm0 1.9844c-0.5 0-0.90625 0.40625-0.90625 0.90625s0.40625 0.90625 0.90625 0.90625 0.90625-0.40625 0.90625-0.90625-0.40625-0.90625-0.90625-0.90625zm29.66-63.297c2.0859 0 3.7812 1.6953 3.7812 3.7812 0 2.0859-1.6953 3.7812-3.7812 3.7812-2.0859 0-3.7812-1.6953-3.7812-3.7812 0-2.0859 1.6953-3.7812 3.7812-3.7812zm0 1.9844c-0.99219 0-1.7969 0.80469-1.7969 1.7969 0 0.99219 0.80469 1.7969 1.7969 1.7969 0.99219 0 1.7969-0.80469 1.7969-1.7969 0-0.99219-0.80469-1.7969-1.7969-1.7969zm11.129 53.949c2.0859 0 3.7812 1.6953 3.7812 3.7812 0 2.0859-1.6953 3.7812-3.7812 3.7812-2.0859 0-3.7812-1.6953-3.7812-3.7812 0-2.0859 1.6953-3.7812 3.7812-3.7812zm0 1.9844c-0.99219 0-1.7969 0.80469-1.7969 1.7969 0 0.99219 0.80469 1.7969 1.7969 1.7969 0.99219 0 1.7969-0.80469 1.7969-1.7969 0-0.99219-0.80469-1.7969-1.7969-1.7969zm-23.188-30.754c2.0859 0 3.7812 1.6953 3.7812 3.7812 0 2.0859-1.6953 3.7812-3.7812 3.7812-2.0859 0-3.7812-1.6953-3.7812-3.7812 0-2.0859 1.6953-3.7812 3.7812-3.7812zm0 1.9844c-0.99219 0-1.7969 0.80469-1.7969 1.7969 0 0.99219 0.80469 1.7969 1.7969 1.7969 0.99219 0 1.7969-0.80469 1.7969-1.7969 0-0.99219-0.80469-1.7969-1.7969-1.7969z" fill-rule="evenodd"/>
<text x="0.0" y="117.5" font-size="5.0" font-weight="bold" font-family="Arbeit Regular, Helvetica, Arial-Unicode, Arial, Sans-serif" fill="#000000">Created by Cezary Lopacinski</text><text x="0.0" y="122.5" font-size="5.0" font-weight="bold" font-family="Arbeit Regular, Helvetica, Arial-Unicode, Arial, Sans-serif" fill="#000000">from Noun Project</text></svg>