<?xml version="1.0" encoding="UTF-8"?>
<svg version="1.1" viewBox="0 0 2048 1489" width="1280" height="1280"  xmlns="http://www.w3.org/2000/svg">
<path transform="translate(0)" d="m0 0h2048v1489h-2048z" fill="none" />
<path transform="translate(1420,320)" d="m0 0h31l30 3 19 4 18 6 17 9 11 9 7 8 8 14 5 14 3 18v27l-4 16-14 35-6 14-3 4h-5l-2-5-3-36-4-24-4-12-5-9-4-5-13-10-17-9-21-8-25-6-7-1h-28l-1 1 18 8 11 7 8 7 4 8 2 11 2 17 4 6 5-2 11-7 7-1 2-4 6-3 9 1 6 4 3 5v13l-4 11-5 8-4 1-1-1v-19l-4-6-4-2 1 8-1 15-5 17 9-3 8-7 9-12 3-9 3-1 3 3 1 3v18l7 8 6 14 8 8 4 7 2 17 1 5 5 1 2 2-1 4-6 9-9 10-9 9-11 9-9 8-17 13-19 14-2 1 2 5 8 10 8 14 5 12v3l5-5 12-16 10-15 9-11 6-5h4l3-9 11-26 11-21 3-3 5 1 8 9 9 16 8 5 25 12 19 9 29 11 17 8 14 9 10 9 6 8 6 14 4 17 1 6 1 20 4 23 10 57 7 46 6 50 3 42v27l-2 18-3 10-6 7-12 6-13 4-21 4-40 4v49l1 24 10 68 15 90 3 16-1 5-4 2h-13l-13-2-1 9-5 5-1 30-4 45-3 7-5 5-6 2h-23l-23-5-23-7-29-11-36-15-42-18-30-12 14 27 9 16 8 16 3 8v5l-2 2-6-1-11-8-7-7-8-7-35-35-7-8-10-11 1 9 9 33 4 17v8l-2 2-4-1-6-8-5-15-6-29-5-38-11-6-9-8-4-8-2-7v-24l10-56 5-40v-108l1-9-18 1-63 11-9 1-26 1-38 25-13 8h-2l1 95 2 35 4 40 5 34 8 39 8 30 8 26 7 19v3h825l1 5-228 1h-601l-4-9-8-22-10-34-9-38-6-34-5-40-3-39-1-25v-88l5-4 18-11 27-18 8-5 30-1 36-6 27-5 8-1h18l3 1 1 7v54l5-55 2-34v-49l-2-17-3-11h-2l-25 25-7 8-36 36-8 7-14 13-11 9-15 12-15 10-19 12-24 15-28 17-24 14-22 12-10 4h-5l1 4-3 3h-11l-15-8-9-7-7-8-1-2v-6l5-4 5-2h8l5 4-6-11-14-21-11-13-5-5 8 16 12 22 1 6-1 2-14 5-12 7 1 5v7l-3 5-5 2h-6v7l-3 5-4 3-7 1-7-1-12 11-5 2h-11l-10 6h-8l-1-4-2 1h-9l-5-2-2-2h-7l-5-3-4-5-4-8-8-3-34-7-7-2 1 7 10 26 13 30 17 35 13 23 12 18 8 10 3 3 22-11 4-8 2-10v-22l-4-24-6-20-6-15 1-4 5 1 8 14 6 14 6 21 3 16 1 9v22l-3 11-6 9-7 5-11 4h-9l-1 46v34l3 37v7l-1 1h-156l-2-2v-24l3-14 4-7 4-1 3 3 1 6v16l7-19 8-26 4-20 3-26v-38l-3-25-5-25 6-5 19-5 23-5 2-1v-10l-8-23v-2l-38 3-19 4-11 5-5 23-5 16-8 20-8 17-12 21-14 22-11 15-7 7-10 5-6 2-13 1-11-2-10-5-8-9-6-12-6-18-8-33-3 5-7 6-5 9 10-2h8l1 1v5l-4 2-11 14-7 8v3l8 7 6 8 2 10v23l-4 17 1 12 8 31 1 10-1 2-420 1h-214l-2-2 1-4 629-1-3-15-6-23v-15l3-11v-29l-4-8-10-9-6-1-1-7-3-6 1-8 4-5 4-3 6-14 8-9 3-2v-17l-5-21-10-27-9-23-5-21v-9l3-7h4l2 7 5 25 9 27 11 29 5 16 9 43 7 24 8 16 7 6 12 4h11l13-4 8-6 6-7 17-26 11-19 11-21 8-20 6-19 3-14-1-7v-30l2-6 3-2 3 3 1 7 1 21 14-5 17-3 25-2h12l5 6 6 16 3 10v8l-2 5-9 4-35 8-4 2 6 31 2 22v28l-2 22-4 24-7 26-8 22-7 13-3 3h-4l-1-2v-22l-2 13-1 14h47l101 1-2-17-2-29v-18l1-27v-27l-1-7-9-9-11-15-12-20-13-24-12-25-16-37-8-22-2-9 1-5 4-1 18 5 7 1-15-5-9-2-23-2-3-3 3-5 7-11 6-18 4-21-12-2-9-2-3 10-14 41-10 26-4 7-4 1-16-7-27-9-41-12-44-14-32-12-25-11-20-11-6-4 3 37 3 60 2 73v48l-1 37-2 41-3 19-6 12-5 3h-17l-32-3h-56l-55 4-65 6h-13l-2-1-4-23-2-19-1-16v-208l-2-31-4-34-8-44-11-50-18-76-7-36-3-24v-35l5-21 8-18 9-15 12-16 11-12 7-7 7-8 12-12 4-6 5-12 6-11 5-5 8-1-3-2 1-9 4-8 6-4 20-6h2l3-12 1-24 2-3h6l-1-4v-14l3-6 4-3 3-1h12l6 4 3 7 1 15 2 5v-11l-1-9 2-2 4 1 13 7 1-29 3-13-1-16v-14l4-8 8-6 7-2 15-1h13l-15-15-17-12-3-1h-11l-14 7-12 9-14 12-10 7-26 15-10 8-8 9-5 11-2 12v9l3 21 4 21v25l-3 9-2 2-4-1-8-16-6-21-8-30-7-19-2-8v-15l4-14 7-13 8-10 8-9 11-9 14-10 15-9 21-11 19-7 10-2 17-1 18 2 16 5 14 7 10 8 7 8 4 9v13l-3 6-3 3-3 2 6 13 8 23 5 12 1 4v9l-4 8v6l5 8 8 8 6 8 2 5v6l-4 4-13 4-1 12-6 5h-2l2 5 3 5-1 7-4 4-2 8-1 16-3 9-6 5-6 2-27 1-8 4-12 11-5 4 2 6 5 10 16 10 15 13 12 13 11 16 8 15 9 27 10 40 7 21v2h10l5 5 14 19 8 10 9 10 10 9 12 9 10 8 12 12 7 9 8 8 10 5 29 9 68 25h1l-4-23-6-8-14-27-9-17-14-22-17-29-19-32-14-22-16-25-13-21-9-15-7-12 1-5 16 1-5-2-7-15-3-10-27 10-26 12-20 10-18 11-5 4-5-1 1-4 11-9 21-13 29-16 36-18h2l2-5 11-18 6-8 3-1 2 1 5 16 8 15 16 25 9 16 11 25 16 42 14 41 14 43 10 26-16-91-9-49 1-7 3-2-10-5-13 5h-6l1-5 9-8 11-15 4-7-37-25-16-12-13-11-7-7-4-9-7-39-4-16v-4l-8-9-6-12-2-8v-14l3-6h-5l-6-8-3-8v-8l3-10v-9l-1-2v-10l5-10 9-10 10-9 16-9 13-5 19-4 10-1h22l16 2 17 5 7 6 2 5v7l-4 11 2 4 10 15 11 21 4 10v9l-2 6v11l7 21v11l-7 15-1 9v12l-3 14-5 10-6 5-5 2h-19l-17-4-10-3 19 7 17 4 1 3v13l-3 22-4 16-3 3 10 4 2 2v31l12 35 6 25 15 76 9 51 4 29v15l-2 2 12 14 1 2-3 3-24-8 8 4 21 7 1-4h9l-5-32-15-72-16-74-11-53-8-26-11-36-4-21v-15l2-3 5 1 12 8 17 14 3 3-1 5 8-5h6l4 9 5 20 4 25 4 38 3 43 2 53 2 44 3 37 4 26 5 16 3 5v2l9 2 17 4h13l11-3-8-36-4-19-11-89-9-81-4-45-3-17-5-16-6-9-9-6-12-5-15-4-23-3-2-4 2-2h14l18 2 17 4 14 7 10 9 8 13 6 14 5 19 4 24 6 60 10 73 1 9 1 42 2 18 4 10 8 12 1 3v7l-1 2 14-7 9-2h18l8 2 6 4 3 5-2 4-7-1h-10l-18 6-7 3-5 12-5 10 1 4 5 1 6-4 9-11 4-3h7l10 4 24 13 19 12 4 3 5-1 13-8 9-2-8-17-11-20v-2l-7 3-9 4h-18l-9-3v-4l3-1 13 1 9-2 16-10 7 1 8 6 9 11 10 13 13 21 12 22 3 4 5 1 10-4 21-11 22-13 28-17 24-15 19-12 18-12 16-13 14-12 13-12 12-11 32-32 7-8 25-25 5 1 4 8 3 13 2 24v32l-2 39-5 57-6 52 1 36 4 70 4 49h10l8-3 6-7 5-11 4-18 10-68 2-18-3-27-1-13v-58l3-27 3-16 2-31 5-13 6-12-6-1-5-4-2-4v-9l6-8 9-10 1-1-8-2-7 1-7 5-4 10-6 5-5 1-5-4-1-3v-16l5-10 13-13 6-3 5-1h33l-19-4-14-7-8-8-4-9-8-40-4-27-2-22v-42l3-24 6-25 7-19 8-6 9-5 1-2-4-2v-5l9-9 7-6-19 9-28 12-20 8-14 8-6 5-6 12-8 29-8 13-15 33-1 3 8 16 9 10 3 1 4-20 2-28 3-5 3 1 1 2 3 36 4 61 4 45v7l-1 1h-11l-35-5-10-1h-26l-10 3-1 3 15 5 26 6 8 5 3 4v5l-5 5-8 4-13 3-8 1h-33l-27-3-21-4-2 7-7 9-11 7-25 10-10 7-10 9-11 8-7 3-9 2-14 14-14 10-14 7-7 2-11 1-2-2 1-4 18-12 21-13 16-9-6-8-3-11v-20l3-17 7-19 13-25 17-28 16-28 13-27 11-27 11-23 8-12 9-11 10-8 14-8 20-8 17-5 10-9 9-9 4-2 4 1-1 41-2 18-4 11-8 13-1 3-1 39-6 25-5 23-3 8 14-14 10-22 5-5 5-2 1-16 7-8 2-2 1-17 2-5-2-9-5-21-3-29-1-22-1-7-7-8h-7l-17 4-8-1-6-5-2-6v-18l-2-6-1-11-5-10-5-3-3-4v-13l2-10v-15l-1-5v-16l3-21 4-15 5-10 10-7h3l2-5 10-9 12-7 17-6 13-3 8-1h21l16 4 10 6 3 4-1 5-4-1-12-5-15-3h-13l-8 3-3 6v11l3 15 5 17 9 21 6 12 1 4v26l3 13 1 9v14l-3 20-6 21-3 7-4-1-5-10-2-9v-15l3-17 8-32-3-10-8-14-12-17-16-21-7-9-8-9-9-6-6-3v12l12 11 8 7 8 8 9 14 5 16 1 15-1 18v73l10 8 6 3h8l5-2 2-5 8-14 8-8 16-8 25-10 34-11 17-4v-17l-2-5-5-3-12-2-21-1-13-2-8-4-4-5-1-7 5-14v-12l4-8-8-5-3-8-15-4-6-5v-8l5-10 9-10 5-9v-7l-5-13v-10l6-18 10-19 7-9 4-4-8-6-6-7-3-7v-11l4-7 8-7 11-5 19-4z"/>
<path transform="translate(365,609)" d="m0 0h8l20 6 19 9 11 8 10 9 7 7 10 15 3 6 5-1 6-5 7 15 14 8 11 9 10 9 12 14 9 14 8 17 6 19 11 43 8 24 1 1h11l13 18 11 14 11 12 9 8 12 9 11 9 10 10 8 10 5 5 6 5 11 5 26 8 49 18 24 9 3 6 10 6 20 8 10 3 1 2-15 44-12 31-2 4-5-1-20-8-47-14-51-16-33-12-25-11-19-10-14-9-33-16-8-14-9-9-15-10-14-8-12-12-7-8-9-9-16-12-14-10-19-13-14-11-14-12-5-5h-4l1 5 8 10 19 19 8 7 12 11 11 9 10 9 16 12 22 12 8 7 27 27 11 7 4 4 6 10 6 5 4 2h16l2 19 3 50 2 48 1 37v80l-2 51-2 22-3 12-3 5-4 2-26-2-25-2h-45l-46 3-64 6-25 2-2-5-3-20-2-23-1-30v-26l1-57v-94l-2-35-4-35-6-35-9-43-21-89-7-34-4-28-1-13v-16l2-16 5-16 9-19 8-12 10-13 9-10 12-12 7-8 8-8 4-5 8-19z" fill="rgb(2, 44, 77)" stroke="#fff"   stroke-width="0" />
<path transform="translate(1594,583)" d="m0 0 16 8 21 10 25 15 14 10-4 4-8 7-9 11-9 16-7 15-8 24-6 26-3 23-1 12v40l3 30 6 31 5 19v6h-8l-14-2h-53l-28 2-8 1-1 1v6l4 6 11 9 20 12 27 15 11 11 10 7 9 1 5-5 1-3v-12l-1-7v-15l3-3 8 4 11 9 8 8 9 13 6 12 3 9-1 5-12 8h-13l-38 6-54 11-11 4-1 4 11-2 17-4 27-3 52-3 3 19 2 15v8l-9-2-9-1h-58l-26 1h-18v10l2 18 4 14 4 4 9 3 9 1h51l39 1 6-5 1 95v51l-1 12-1 1-10 1 1 8 1 9-12 3-24 3-41 3-48 1-37-1-10-2-6-4-7-7-10-15-12-25-7-22-6-24-6-32-1-8 4-42 1-18v-19l-2-40v-27l6-20 8-18 6-1 2 8 3 3 6 2 11 1 10-3 10 5 4 1h19l1 1 3 21 4 12 5 9 6 5h5l-2-28-4-40-4-28-4-13-4-6-17-8-19-12-10-5-8-2v-1h14l12-20 10-18 14-27 15-31 13-28 16-36 13-33 9-19 7-10 4-4v-4l-13-7-5-5 7-3 19-3 4-17z" fill="rgb(2, 44, 77)" stroke="#fff"   stroke-width="0" />
<path transform="translate(1663,614)" d="m0 0 5 1 17 9 10 8 7 7 7 15 5 21 1 8 1 21 8 41 8 49 7 51 4 38 2 28v36l-2 14-4 9-8 6-14 5-21 4-28 3-15 1-1-3 13-9 2-7-4-13-7-14-10-13-9-9-13-9-4-2h-6l-4 4-1 3v13l1 7v14l-2 3-7-1-10-8-11-10-24-13-21-13-10-8-3-3v-2l2-1 11-1 23-1h52l12 2 10-1 2-3v-7l-8-32-5-32-1-12v-48l3-26 5-24 7-23 10-23 10-16 12-13 10-7-1-4-13-9z" fill="rgb(2, 44, 77)" stroke="#fff"   stroke-width="0" />
<path transform="translate(1391,379)" d="m0 0 9 3 22 10 11 8 4 5 3 10 2 19 4 9 3 3h7l15-9h3v13l-1 13-4 11v7l4 3 8-1 10-6 10-11 3-3v11l6 5 8 16 7 8 4 5 3 20 3 6 3 2-8 11-13 13-8 7-13 11-32 24-6 4-4-1-9-9-7-3v-14l-2-8-2-4-10-4-14-2-20-1-14-3-4-4 1-9 4-10-1-9 4-7v-7l-9-7-3-7-7-3-10-2-2-2v-6l7-11 7-8 5-10v-7l-5-12v-12l6-16 8-16 7-9z" fill="rgb(2, 44, 77)" stroke="#fff"   stroke-width="0" />
<path transform="translate(1560,550)" d="m0 0 4 2 6 9 7 12 9 6 2 1v8l-4 23-1 2-19 3-10 5 1 5 10 7 7 4-2 4-9 15-9 20-13 33-15 33-14 30-14 29-11 22-13 23-9 14-16-1-20-4-14-7-7-8-3-8-7-35-5-35-2-32 1-28 3-22 5-21 7-19 11-7 8-5 1-6-4-2 2-4 8-7 2 1 1 5v29l-4 27-7 43-3 26-1 15v46l3 36 3 9 5 4 5 2h6l5-43 8-75 6-45 8-44v-4l-10-2-9-2-3-3-1-7 3-7 6-5 4 1 11 15 8 16 5 13 4 1 8-7 13-18 8-12 9-12h1v6l-16 42-21 58-9 24-13 32-13 35-7 23-1 5 5-1 15-40 22-61 16-38 14-36 10-31 4-14 11-28 10-23z" fill="rgb(2, 44, 77)" stroke="#fff"   stroke-width="0" />
<path transform="translate(1273,652)" d="m0 0 2 1-1 38-3 16-8 14-3 6-1 4v33l-3 15-5 20-4 18-6 10-7 10-8 13-6 7-10 5-15 6h-6l-4-9-1-7 3-7 1-7v-15l-1-12v-36l-1-2-5 1-3 27-1 31v6l-4-2-6-1-4 6-2 6-5-5-7-6-2-1h-6l-3 4-1 7-7 3-1 2v9l2 6-5 5v11l14 1 41 6 6 2-5 10-7 6-13 6-18 7-10 7-11 10-11 8-6 2h-5l-7-8-3-8v-24l4-18 6-15 13-25 17-28 13-23 11-21 17-41 10-20 10-14 11-11 11-7 15-7 18-6 10-3 10-9z" fill="rgb(2, 44, 77)" stroke="#fff"   stroke-width="0" />
<path transform="translate(762,472)" d="m0 0 5 5 9 14 12 25v9l-2 8v8l4 14 4 11-1 8-6 13-1 3-1 22-3 12-5 8-5 3-4 1h-9l-16-3-24-8-25-11-5-1v4l10 9 16 9 15 7 19 6 8 2v15l-4 24-3 8-6 4-5-2-11-8-27-18-12-9-13-11-7-8-3-8-7-39-2-7v-4l10-3 6-4 4-9 4-29 3-14v-17l2-10 8-5 9-2 26-2 10-2 10-5 10-9z" fill="rgb(2, 44, 77)" stroke="#fff"   stroke-width="0" />
<path transform="translate(492,441)" d="m0 0h28l6 9 11 31 5 12v10l-4 8 1 9 6 9 8 8 6 9-1 5-13 4-3 5v9l-5 4h-2l-1 8 4 6-1 4-4 6-1 4-2 22-2 5-6 4-26 1-10 3-13 11-7 6h-2l-8-11-9-10-11-8-18-10-24-10-19-6-1-3 4-8 10-4 13-4 4-2 4-11 1-6 1-19 5 1 6 9 10 7 4 3h7l5-6 3-10 1-14v-6l9 4h6l2-6 1-21 2-11 1-4v-35l3-5 7-4z" fill="rgb(2, 44, 77)" stroke="#fff"   stroke-width="0" />
<path transform="translate(1409,1152)" d="m0 0h2l6 28 7 25 7 19 12 23 9 12 7 7 8 4 4 1 13 1h79l32-2 31-4 13-3v32l-4 42-4 5-8 3h-14l-25-5-37-12-37-15-54-23-27-11-8-3-5 1 1 9 10 21 10 17 8 15 3 9-4-2-12-11-8-7-27-27-7-8-12-12-7-8-4-3h-4l-2-10v-1l14-1 8-4 7-8 5-11 4-17z" fill="rgb(2, 44, 77)" stroke="#fff"   stroke-width="0" />
<path transform="translate(1418,326)" d="m0 0h42l23 3 24 6 17 7 12 8 9 8 7 10 5 10 4 13 2 12v31l-5 17-9 21-7 18h-2l-3-36-3-17-5-16-6-10-5-6-12-9-18-10-24-9-21-5-14-2h-23l-14 3-10-6-7-8-3-8 2-9 8-7 12-5 15-3z" fill="rgb(2, 44, 77)" stroke="#fff"   stroke-width="0" />
<path transform="translate(1301,741)" d="m0 0 3 4 7 12 7 7 7 2 4-1 2-5 3-12h1l3 43 4 49 1 15-13-1-30-4-11-1h-21l-12 3-5 3-1 2v6l5 4 11 4 30 7 5 3-1 4-6 4-11 3-7 1h-39l-31-4-10-2 1-4 5-5 7-3 12-3 6-4 8-9 12-21 7-9 15-15 10-22 5-4 5-3 1-6v-10l7-8 3-4v-14z" fill="rgb(2, 44, 77)" stroke="#fff"   stroke-width="0" />
<path transform="translate(945,994)" d="m0 0h21l-2 2-19 6-10 4-2 2-3 9-7 13-1 6 2 5 3 2h10l8-6 8-10 1-1h7l25 13 18 11 10 7-10 10-6-2-15-8-4 1 1 3 18 10-1 4-8 8-6-2-7-5-4 1 2 4 5 5 2 5-5 1-11-6-8-1-3-3-3-1h-7l-5 1-6-3h-9l-4 1h-9l-12-2-18-10-18-6-11-2-13-1-2-2 6-10 5-13 6-27 22 6 16 1 24-6 11-6 8-5z" fill="rgb(2, 44, 77)" stroke="#fff"   stroke-width="0" />
<path transform="translate(655,650)" d="m0 0 2 1 6 14 14 23 9 14 9 17 13 31 14 38 26 78 12 31 9 20 2 11-1 4-17-34-12-19-9-15-13-22-17-29-28-44-12-19-17-28-1-4 29 2v-4l-22-11-5-10-6-15-8 1-6 1 4-3 9-5h2l2-5 11-18z" fill="rgb(2, 44, 77)" stroke="#fff"   stroke-width="0" />
<path transform="translate(1243,474)" d="m0 0h1l1 9 4 6 11 10 8 7 7 7 7 11 4 10 2 10v15l-1 19-1 59-7-5h-7l-16 4h-7l-5-5v-18l-2-6-1-12-5-12v-2l-6-2-3-5 3-21v-11l-1-6v-20l4-24 4-11 3-5z" fill="rgb(2, 44, 77)" stroke="#fff"   stroke-width="0" />
<path transform="translate(1418,869)" d="m0 0h11l25 2 12 5 21 13 17 9 3 6 4 20 4 31 4 46h-2l-6-12-4-17-1-14-1-2h-18l-10-2-8-5-5 1-5 2h-8l-9-3-2-5 3-7 6-8 1-3-4-1-8 10-4 3h-8l-2 5-7 16-1-4 11-23 9-13 4-5 1-3-4-1-9 10-5 4-5 1-4-4v-7l9-11 9-9 1-4-6-2-12-2-7 1-9 6-3 1-2 9-4 5-3-1-1-10 2-8 6-8 8-8 6-3z" fill="rgb(2, 44, 77)" stroke="#fff"   stroke-width="0" />
<path transform="translate(458,385)" d="m0 0h16l17 3 15 6 11 7 9 8 5 9 1 9-3 7-6 2-11-12-8-7-13-10-9-5-4-1h-9l-11 4-12 7-14 12-15 12-17 10-18 11-11 11-7 14-2 8v24l6 32 1 18-1 10-3-3-5-13-11-42-8-22-1-4v-17l4-12 6-11 8-10 6-7 11-9 12-9 15-9 23-12 16-6z" fill="rgb(2, 44, 77)" stroke="#fff"   stroke-width="0" />
<path transform="translate(770,666)" d="m0 0 9 5 13 11 5 5-2 4-1 7 6-1 11-7h2l5 17 5 30 4 36 3 41 2 49 2 50 3 38 4 27 4 15 2 7-12-2-5-2 3-1 6-1-1-17-5-29-21-98-15-71-6-27-14-44-6-24-1-6z" fill="rgb(2, 44, 77)" stroke="#fff"   stroke-width="0" />
<path transform="translate(758,740)" d="m0 0 2 2 12 36 6 25 14 71 10 56 4 30v3l-5-2-4-4-13-22-10-19-6-32-21-118-3-16v-5l12-4z" fill="rgb(2, 44, 77)" stroke="#fff"   stroke-width="0" />
<path transform="translate(1601,1038)" d="m0 0 29 1 12 3 4 3 1 14-3 18-2 4h-20l-74-1-12-3-3-5-3-14-1-18z" fill="rgb(2, 44, 77)" stroke="#fff"   stroke-width="0" />
<path transform="translate(1440,635)" d="m0 0 7 6 7 2 8 1 1 2-7 38-7 52-11 103-1 8-6-2-3-4-2-13-2-22v-56l3-31 8-50 3-18z" fill="rgb(2, 44, 77)" stroke="#fff"   stroke-width="0" />
<path transform="translate(703,436)" d="m0 0h30l17 3 11 4 4 5v8l-3 7-9-2-7-1h-11l-17 2-23 5-24 7-8 5-7 10-9 17-8 17-3 4-3-1-4-9v-9l3-10v-7l-2-9 4-10 9-10 9-8 14-8 15-6 14-3z" fill="rgb(2, 44, 77)" stroke="#fff"   stroke-width="0" />
<path transform="translate(731,465)" d="m0 0h19l8 3-6 8-11 8-9 3-27 2-14 3-8 5-3 6-1 28-3 12-3 24-2 4-5-13-2-15-4-7-6-4-4-1h-8l-4 1 7-11 11-22 9-15 4-4 22-7 26-6z" fill="rgb(2, 44, 77)" stroke="#fff"   stroke-width="0" />
<path transform="translate(867,700)" d="m0 0 3 3 7 15 5 18 4 23 6 60 10 73 2 19 1 45 3 14 11 18v5l-8 7-2-4-7-30-4-21-10-82-10-91-3-35-3-19-5-16z" fill="rgb(2, 44, 77)" stroke="#fff"   stroke-width="0" />
<path transform="translate(1301,442)" d="m0 0 4 1-5 5-2 8 1 14 5 21 7 19 8 16 3 7 1 13h-2l-6-11-11-16-15-20-10-13-9-10-10-7-6-3 6-7 11-7 12-5 13-4z" fill="rgb(2, 44, 77)" stroke="#fff"   stroke-width="0" />
<path transform="translate(1384,614)" d="m0 0 3 1-29 12-12 7-7 6-5 9-4 11-6 22-9 16-8 17-5 10-2-3-4-17-3-26-1-26 4 2 10 6 3 1h8l6-3 6-7 8-14 9-8 17-8z" fill="rgb(2, 44, 77)" stroke="#fff"   stroke-width="0" />
<path transform="translate(1654,1108)" d="m0 0h1l11 70 11 63v2l-5 1-19-3 1-19v-36l-1-37v-34z" fill="rgb(2, 44, 77)" stroke="#fff"   stroke-width="0" />
<path transform="translate(1143,840)" d="m0 0 5 1 8 9 9 14 6 11 3 3v2h5l-2-7-10-17v-12l2-4 7 6 2 2 3 14 5 10 2 1h7l6-1-5 4-6 9-10-1-49-7-1-4 5-1 4 3 4 1-1-5-6-7-3-9 1-3 5 1 13 17 5 7h4l-1-4-12-17-4-6-1-3z" fill="rgb(2, 44, 77)" stroke="#fff"   stroke-width="0" />
<path transform="translate(1346,1139)" d="m0 0h1l3 46 5 65-5-2-9-7-4-6-3-12v-12l3-20 7-38z" fill="rgb(2, 44, 77)" stroke="#fff"   stroke-width="0" />
<path transform="translate(643,536)" d="m0 0h8l6 4 3 7 2 14 3 7-1 7-4 5-5-1-8-9-6-12-2-13 2-8z" fill="rgb(2, 44, 77)" stroke="#fff"   stroke-width="0" />
<path transform="translate(426,512)" d="m0 0 7 1 3 2 1 3 1 14 3 9-1 5-14-5-7-4-2-12 1-8 4-4z" fill="rgb(2, 44, 77)" stroke="#fff"   stroke-width="0" />
<path transform="translate(743,709)" d="m0 0h11l5 2v11l-1 13-15-1-6-3-2-2h-6l6-9z" fill="rgb(2, 44, 77)" stroke="#fff"   stroke-width="0" />
<path transform="translate(923,1084)" d="m0 0h10l4 3 6-1h8l3 5-5 4-8 6h-10l2-4 5-4v-4l-7 3-8 5h-5l-4-5-2-4v-3z" fill="rgb(2, 44, 77)" stroke="#fff"   stroke-width="0" />
<path transform="translate(1323,572)" d="m0 0h2l1 7v20l-3 18-5 16-2-3-1-5v-19l5-23z" fill="rgb(2, 44, 77)" stroke="#fff"   stroke-width="0" />
<path transform="translate(1056,1050)" d="m0 0 4 1 11 12 6 7 4 4 1 3-6-1-16-9-9-7-2-3v-4z" fill="rgb(2, 44, 77)" stroke="#fff"   stroke-width="0" />
<path transform="translate(1409,1016)" d="m0 0h1l1 5 1 19v34l-2 26h-1l-1-8-1-19v-29z" fill="rgb(2, 44, 77)" stroke="#fff"   stroke-width="0" />
<path transform="translate(413,618)" d="m0 0 6 2 16 9 10 8 9 10 7 11-4 4-3-1-7-12-12-13-10-9-12-8z" fill="rgb(2, 44, 77)" stroke="#fff"   stroke-width="0" />
<path transform="translate(781,953)" d="m0 0 16 12 10 14-3 1-20-7-3-14z" fill="rgb(2, 44, 77)" stroke="#fff"   stroke-width="0" />
<path transform="translate(427,888)" d="m0 0 5 2 17 12 17 13 10 9 7 7-1 2-15-10-16-13-11-9-13-12z" fill="rgb(2, 44, 77)" stroke="#fff"   stroke-width="0" />
<path transform="translate(968,1185)" d="m0 0h1v26l-3 9-4 6-8 5-9 3-6-1 2-4 16-7 5-6 4-13z" fill="rgb(2, 44, 77)" stroke="#fff"   stroke-width="0" />
<path transform="translate(1435,599)" d="m0 0h6l10 10-2 4-5 4-3 6h-1l-3-16-3-5-3-2z" fill="rgb(2, 44, 77)" stroke="#fff"   stroke-width="0" />
<path transform="translate(960,1090)" d="m0 0 6 2 8 4-3 3h-5l-2-2-4 1-10 7v-3l5-6-1-4z" fill="rgb(2, 44, 77)" stroke="#fff"   stroke-width="0" />
<path transform="translate(1483,430)" d="m0 0h7l5 5 1 8-1 5h-2l-3-7-5-6-4-2v-2z" fill="rgb(2, 44, 77)" stroke="#fff"   stroke-width="0" />
<path transform="translate(1237,842)" d="m0 0 1 2-7 12-9 10-7 3-12 2 4-3 12-5 8-6 7-10z" fill="rgb(2, 44, 77)" stroke="#fff"   stroke-width="0" />
<path transform="translate(627,1218)" d="m0 0 3 1-7 8-7 9-1-3 3-11z" fill="rgb(2, 44, 77)" stroke="#fff"   stroke-width="0" />
<path transform="translate(551,992)" d="m0 0 9 3 10 5v2h-7l-8-4-4-4z" fill="rgb(2, 44, 77)" stroke="#fff"   stroke-width="0" />
<path transform="translate(1079,963)" d="m0 0 2 1-10 8-13 7-3-1 19-12z" fill="rgb(2, 44, 77)" stroke="#fff"   stroke-width="0" />
<path transform="translate(517,959)" d="m0 0 5 2 12 11 3 5-4-2-8-7-8-8z" fill="rgb(2, 44, 77)" stroke="#fff"   stroke-width="0" />
<path transform="translate(1e3 1076)" d="m0 0 2 1v6l-4 3h-6l2-4z" fill="rgb(2, 44, 77)" stroke="#fff"   stroke-width="0" />
<path transform="translate(426,547)" d="m0 0 10 3h8l-2 5-3 2-10-7z" fill="rgb(2, 44, 77)" stroke="#fff"   stroke-width="0" />
<path transform="translate(1633,987)" d="m0 0h9l-1 2-3 1-23 1 4-2z" fill="rgb(2, 44, 77)" stroke="#fff"   stroke-width="0" />
<path transform="translate(1017,1062)" d="m0 0h2v7l-1 1h-7v-3z" fill="rgb(2, 44, 77)" stroke="#fff"   stroke-width="0" />
<path transform="translate(1645,995)" d="m0 0h2l1 5v16h-1l-2-15z" fill="rgb(2, 44, 77)" stroke="#fff"   stroke-width="0" />
<path transform="translate(778,936)" d="m0 0 4 5 3 5-1 2-5-4z" fill="rgb(2, 44, 77)" stroke="#fff"   stroke-width="0" />
<path transform="translate(1643,1245)" d="m0 0 4 1-1 8-2 1z" fill="rgb(2, 44, 77)" stroke="#fff"   stroke-width="0" />
</svg>
