<svg xmlns="http://www.w3.org/2000/svg" data-name="Layer 1" viewBox="0 0 1000 1250" x="0px" y="0px"><title>6260-Consulting Services</title><path d="M393.42,468H281.57a16,16,0,0,1-11.31-4.69l-62.63-62.63A16,16,0,1,1,230.25,378l57.95,58H393.42a16,16,0,1,1,0,32Z"/><path d="M718.43,468H606.58a16,16,0,0,1,0-32H711.81l57.94-58a16,16,0,1,1,22.63,22.63l-62.63,62.63A16,16,0,0,1,718.43,468Z"/><path d="M386,781.1c-20.46,0-36.18-9.12-42.54-25l-2-4.92c-3.14-7.86-6.12-15.29-9.42-22.66l-35.76-79.91h-68c-6.54,0-13.22.05-19.68.1l-9.4.06a68.46,68.46,0,0,1-30.35-6.89c-15.06-7.53-25.8-20.78-31.06-38.31a80.89,80.89,0,0,1-3.29-23.19V420.2a131,131,0,0,1,22.84-74.57c25.31-36.8,59.77-45.12,94.55-22.83a102,102,0,0,1,17,13.82l15.28,15.29a90,90,0,0,0,61.37,26.41l20.51.56a55.51,55.51,0,0,1,34.27,12.87c7.06,6,20,20.54,15.86,44.33l83.83.43,83.83-.43c-4.12-23.79,8.8-38.33,15.85-44.32A55.48,55.48,0,0,1,634,378.88l20.52-.56a89.94,89.94,0,0,0,61.36-26.41l15.29-15.28a101.62,101.62,0,0,1,17-13.83c34.78-22.29,69.24-14,94.54,22.83a130.92,130.92,0,0,1,22.85,74.57V580.42a80.89,80.89,0,0,1-3.29,23.19c-5.26,17.53-16,30.78-31.06,38.31a68.41,68.41,0,0,1-30.36,6.89l-9.38-.06c-6.47,0-13.15-.1-19.69-.1h-68L668,728.56c-3.26,7.31-6.21,14.67-9.33,22.46q-1,2.57-2.06,5.13c-6.86,17.06-24.59,26.33-47.4,24.79-1.23-.08-2.48-.14-3.73-.19l-1,0c-24.87-1.09-42.45-9.79-52.25-25.84-17.14-28.09-1.07-65.77,1.24-70.86l7.06-16.33c11.94-27.65,23.3-56.21,34.29-83.84,4.12-10.36,8.38-21.07,12.62-31.6,8.93-22.19,33.13-28.73,46-29.1h34.19A25.49,25.49,0,0,0,713,497.64a16,16,0,1,1,32,0,57.5,57.5,0,0,1-57.48,57.48H654.27c-1.57.12-14.12,1.35-17.22,9.06-4.22,10.47-8.47,21.15-12.57,31.48-11.08,27.84-22.52,56.62-34.65,84.7l-7.13,16.49-.15.33c-3.09,6.85-10.35,29.19-3.06,41.05,3.92,6.37,12.77,9.91,26.33,10.51l1,0c1.5.06,3,.13,4.5.23,4.6.31,13.75-.3,15.57-4.81l2-5.07c3.1-7.74,6.31-15.75,9.84-23.64l40-89.38a16,16,0,0,1,14.6-9.46h78.42c6.66,0,13.41.05,19.93.1l9.33.06c10.87.05,25-3.77,30.57-22.39a48.49,48.49,0,0,0,1.95-14V420.2a99,99,0,0,0-17.22-56.44c-19.61-28.53-36.74-23.09-50.91-14a70.12,70.12,0,0,0-11.68,9.5l-15.29,15.3a121.75,121.75,0,0,1-83.11,35.76l-20.51.56a23.41,23.41,0,0,0-14.47,5.32c-3.11,2.63-10.41,8.83.21,28A16,16,0,0,1,606.66,468l-106.58.54h-.16L393.34,468a16,16,0,0,1-13.93-23.75c10.63-19.21,3.33-25.41.21-28.05a23.43,23.43,0,0,0-14.46-5.31l-20.51-.56a121.76,121.76,0,0,1-83.12-35.77l-15.27-15.28a69.74,69.74,0,0,0-11.68-9.5c-14.18-9.09-31.31-14.52-50.93,14a99.08,99.08,0,0,0-17.21,56.44V580.42a48.84,48.84,0,0,0,1.94,14c5.54,18.47,19.48,22.39,30.31,22.39H199l9.35-.06c6.52,0,13.26-.1,19.92-.1h78.42a16,16,0,0,1,14.6,9.46l40,89.38c3.56,8,6.79,16,9.92,23.84l1.95,4.87c1.82,4.52,11,5.12,15.56,4.81,1.52-.1,3-.17,4.52-.23l1,0c13.56-.6,22.42-4.14,26.34-10.51,7.29-11.86,0-34.2-3.08-41.09a2.75,2.75,0,0,1-.14-.3l-7.11-16.48c-12.15-28.11-23.61-56.92-34.69-84.79-4.1-10.3-8.34-21-12.54-31.39-3.1-7.71-15.65-8.94-17.22-9.06H312.44A57.5,57.5,0,0,1,255,497.64a16,16,0,0,1,32,0,25.47,25.47,0,0,0,25.48,25.48h34.18c12.89.37,37.09,6.91,46,29.1,4.22,10.5,8.47,21.18,12.58,31.51,11,27.65,22.37,56.25,34.33,83.93L446.61,684c2.31,5.11,18.37,42.78,1.24,70.86-9.8,16-27.38,24.75-52.26,25.84l-1,0c-1.25,0-2.5.11-3.75.19C389.18,781.05,387.56,781.1,386,781.1Z"/><path d="M219,299a67.35,67.35,0,1,1,67.34-67.35A67.43,67.43,0,0,1,219,299Zm0-102.69a35.35,35.35,0,1,0,35.34,35.34A35.38,35.38,0,0,0,219,196.28Z"/><path d="M781.05,299a67.35,67.35,0,1,1,67.34-67.35A67.42,67.42,0,0,1,781.05,299Zm0-102.69a35.35,35.35,0,1,0,35.34,35.34A35.38,35.38,0,0,0,781.05,196.28Z"/><path d="M525.47,780.45H474.53a16,16,0,0,1-16-16V452.38a16,16,0,0,1,32,0V748.45h18.94V452.38a16,16,0,0,1,32,0V764.45A16,16,0,0,1,525.47,780.45Z"/><path d="M271,513.64a15.63,15.63,0,0,1-3.63-.42,16,16,0,0,1-12-19.2L266,448.35a16,16,0,1,1,31.17,7.24l-10.62,45.67A16,16,0,0,1,271,513.64Z"/><path d="M729,513.64a16,16,0,0,1-15.57-12.38l-10.61-45.67A16,16,0,1,1,734,448.35L744.62,494a16,16,0,0,1-12,19.2A15.71,15.71,0,0,1,729,513.64Z"/><path d="M327.45,695.16H205.58l-.61,0c-58.29-2.2-86.43-31.37-99.77-55.45a119.71,119.71,0,0,1-14.57-51.87L84,299a16,16,0,0,1,32-.74l6.62,288.87v.27a88.35,88.35,0,0,0,11.13,37.77c13.67,23.84,37.94,36.61,72.14,38H327.45a16,16,0,0,1,0,32Z"/><path d="M213.72,769.38a16,16,0,0,1-16-16V679.16a16,16,0,0,1,32,0v74.22A16,16,0,0,1,213.72,769.38Z"/><path d="M291.6,835.72H135.85a16,16,0,0,1-16-16,82.43,82.43,0,0,1,82.34-82.33h23.07a82.43,82.43,0,0,1,82.34,82.33A16,16,0,0,1,291.6,835.72Zm-137.14-32H273a50.42,50.42,0,0,0-47.73-34.33H202.19A50.42,50.42,0,0,0,154.46,803.72Z"/><path d="M794.42,695.16H672.55a16,16,0,0,1,0-32H794.11c34.68-1.38,59.14-14.5,72.7-39a87.68,87.68,0,0,0,10.57-36.77v-.27L884,298.27a16,16,0,0,1,32,.74l-6.63,288.81a119.71,119.71,0,0,1-14.57,51.87c-13.34,24.08-41.48,53.25-99.77,55.45Z"/><path d="M786.28,769.38a16,16,0,0,1-16-16V679.16a16,16,0,0,1,32,0v74.22A16,16,0,0,1,786.28,769.38Z"/><path d="M708.4,835.72a16,16,0,0,1-16-16,82.43,82.43,0,0,1,82.34-82.33h23.07a82.43,82.43,0,0,1,82.34,82.33,16,16,0,0,1-16,16Zm18.61-32H845.54a50.42,50.42,0,0,0-47.73-34.33H774.74A50.42,50.42,0,0,0,727,803.72Z"/><text x="0" y="1015" fill="#000000" font-size="5px" font-weight="bold" font-family="'Helvetica Neue', Helvetica, Arial-Unicode, Arial, Sans-serif">Created by IYIKON</text><text x="0" y="1020" fill="#000000" font-size="5px" font-weight="bold" font-family="'Helvetica Neue', Helvetica, Arial-Unicode, Arial, Sans-serif">from the Noun Project</text></svg>