<svg xmlns="http://www.w3.org/2000/svg" xmlns:xlink="http://www.w3.org/1999/xlink" version="1.1" x="0px" y="0px" viewBox="0 0 81.813 101.98124999999999" enable-background="new 0 0 81.813 81.585" xml:space="preserve"><path fill="none" d="M19.277,31.333c-1.2,3.14-2.01,6.31-1.44,9.78C22.197,39.013,23.386,33.292,19.277,31.333z"/><path fill="none" d="M10.476,18.743c-0.5-0.48-1.16-0.86-1.81-1.12c-1.45-0.59-2.93-1.07-4.4-1.59c7.33,3.97,12.11,10.72,17.8,16.52  c0.86-1.22,0.61-1.95-0.42-2.91C17.857,26.083,14.217,22.362,10.476,18.743z"/><path fill="none" d="M49.887,44.663c-5.07-2.15-10.19-4.18-15.201-6.46c-1.6-0.73-2.27-0.12-3.19,1.14  c2.48,0.99,4.78,2.04,7.16,2.851c3.89,1.33,7.87,2.42,11.76,3.779c4.471,1.58,8.271,4.301,11.79,7.44  C58.977,49.243,54.626,46.672,49.887,44.663z"/><path d="M2.078,67.953c1.18-0.37,1.92-0.61,2.67-0.84c1.18-0.36,2.351-0.74,3.54-1.061c2.51-0.66,4.561,0.21,6.311,1.99  c0.22,0.22,0.439,0.44,0.68,0.64c0.07,0.061,0.18,0.08,0.38,0.15c1.24-1.37,1.46-3.14,1.55-4.86c0.101-1.689-0.189-3.39-0.2-5.09  c0-0.59,0.15-1.34,0.521-1.76c4.79-5.49,10.56-9.4,17.67-11.42c5.33-1.521,10.51-3.54,16.03-5.44c1.96,2.29,3.39,5.35,4.26,8.75  c2.351-1.67,3.93-4.6,5.15-9.46c1.16,1.04,2.25,2.01,3.75,3.36c0.22-1.57,0.66-2.76,0.51-3.89c-0.33-2.59-0.97-5.15-1.43-7.73  c-0.09-0.48-0.09-1.2,0.199-1.48c3.211-3.27,6.41-6.55,9.771-9.67c1.34-1.25,3.1-2.04,4.56-3.18c0.99-0.78,2.24-1.77,1.53-3.21  c-0.66-1.31-2.12-1.02-3.35-0.85c-0.561,0.08-1.13,0.15-1.681,0.31c-1.989,0.59-3.93,0.75-6.05,0.33  c-4.46-0.89-8.859-0.11-13.06,1.53c-4.851,1.88-9.641,3.91-14.471,5.84c-0.58,0.23-1.279,0.35-1.89,0.27  c-5.5-0.73-10.82-0.17-15.96,1.96c-0.24,0.1-0.48,0.2-0.7,0.33c-0.13,0.07-0.229,0.2-0.59,0.51c2.7,1.3,5.29,2.55,8.05,3.87  c-2.32,2.1-4.49,3.96-6.55,5.92c-5.39,5.11-9.88,10.84-12.05,18.1c-0.5,1.67-0.851,3.4-1.4,5.07c-0.229,0.71-0.68,1.479-1.26,1.939  c-2.23,1.8-4.38,3.65-5.59,6.32C2.658,65.932,2.479,66.722,2.078,67.953z M67.301,17.501l-2.819,1.54  c-0.426-0.779-0.14-1.754,0.64-2.18C65.901,16.436,66.876,16.723,67.301,17.501z M62.538,31.333c1.2,3.14,2.011,6.31,1.44,9.78  C59.618,39.013,58.429,33.292,62.538,31.333z M60.168,29.643c3.79-3.56,7.431-7.28,11.171-10.9c0.5-0.48,1.159-0.86,1.81-1.12  c1.45-0.59,2.93-1.07,4.4-1.59c-7.33,3.97-12.11,10.72-17.801,16.52C58.889,31.333,59.139,30.603,60.168,29.643z M19.609,53.413  c3.229-4.17,7.58-6.74,12.319-8.75c5.07-2.15,10.19-4.18,15.201-6.46c1.6-0.73,2.27-0.12,3.189,1.14  c-2.479,0.99-4.78,2.04-7.16,2.851c-3.89,1.33-7.87,2.42-11.76,3.779C26.928,47.552,23.128,50.273,19.609,53.413z"/><text x="0" y="96.585" fill="#000000" font-size="5px" font-weight="bold" font-family="'Helvetica Neue', Helvetica, Arial-Unicode, Arial, Sans-serif">by Arturo Alejandro Romo Escartin</text><text x="0" y="101.585" fill="#000000" font-size="5px" font-weight="bold" font-family="'Helvetica Neue', Helvetica, Arial-Unicode, Arial, Sans-serif">from the Noun Project</text></svg>