<svg xmlns="http://www.w3.org/2000/svg" viewBox="0 0 64 80" x="0px" y="0px"><title>World Ocean Day</title><path d="M43.99571,16.41924a4.71166,4.71166,0,0,0-.75729-3.75532C34.14791-1.6513,12.42923,2.72422,8.69353,18.81573a18.5887,18.5887,0,0,0,2.41713,14.08756,4.74787,4.74787,0,0,0,7.01267,1.4419c.05454-.00408,23.73461-15.00047,23.808-15.02122A4.62179,4.62179,0,0,0,43.99571,16.41924Z"/><path d="M28.1445,45.40377A13.29772,13.29772,0,0,1,23.331,39.5529a4.54413,4.54413,0,0,1-2.27187-.26966,14.78484,14.78484,0,0,0,5.882,7.81147,12.74379,12.74379,0,0,1,5.58114,10.61242,6.07532,6.07532,0,0,1-.08295,1.07886,1.04416,1.04416,0,0,0,1.027,1.21379c1.20029-.2093,1.01961-.777,1.13078-2.24072A14.83749,14.83749,0,0,0,28.1445,45.40377Z"/><path d="M49.3175,32.05263a12.96,12.96,0,0,1-4.95867-6.2554,4.24955,4.24955,0,0,1-1.50422,1.8569A15.496,15.496,0,0,0,48.12454,33.754a12.75976,12.75976,0,0,1,5.57075,10.61242c-.01575,1.1171-.43912,2.09064.944,2.29268,1.1982-.21509,1.01968-.78751,1.13081-2.25114A14.851,14.851,0,0,0,49.3175,32.05263Z"/><path d="M50.32379,47.52a12.68265,12.68265,0,0,1-8.18495-10.01072,15.59152,15.59152,0,0,0-3.2159-7.35509L37.149,31.27459a13.31369,13.31369,0,0,1,2.9462,6.58737,14.87348,14.87348,0,0,0,8.37164,11.16227,4.65986,4.65986,0,0,0,1.57683.52911A1.0389,1.0389,0,0,0,50.32379,47.52Z"/><path d="M22.16916,37.45743a2.23942,2.23942,0,0,0,1.7428-.2905l4.73047-2.97729c.04153-.03109.09339-.06224.14525-.09333,3.01708-1.90618,9.81326-6.19431,12.7702-8.05011a2.33648,2.33648,0,0,0,.71577-3.1744l-.59129-.94405L20.14624,35.50714C20.62782,36.28617,21.16,37.307,22.16916,37.45743Z"/><path d="M35.19871,40.95341a13.3398,13.3398,0,0,1-4.66824-5.50851l-1.774,1.11a15.51548,15.51548,0,0,0,5.24917,6.08938,12.80077,12.80077,0,0,1,5.58113,10.62287c-.04622,1.11878-.3962,2.13168.9337,2.28223,1.208-.20817,1.01683-.77622,1.14113-2.24069A14.87369,14.87369,0,0,0,35.19871,40.95341Z"/><text x="0" y="79" fill="#000000" font-size="5px" font-weight="bold" font-family="'Helvetica Neue', Helvetica, Arial-Unicode, Arial, Sans-serif">Created by metami septiana</text><text x="0" y="84" fill="#000000" font-size="5px" font-weight="bold" font-family="'Helvetica Neue', Helvetica, Arial-Unicode, Arial, Sans-serif">from the Noun Project</text></svg>