<svg xmlns="http://www.w3.org/2000/svg" version="1.1" viewBox="-5.0 -10.0 110.0 135.0">
 <path d="m34.766 40.918c0-0.86328-0.69922-1.5625-1.5625-1.5625h-16.406c-0.86328 0-1.5625 0.69922-1.5625 1.5625s0.69922 1.5625 1.5625 1.5625h6.6719c0.023438 1.0469 0.10938 2.0898 0.25781 3.125h3.168c-0.17578-1.0352-0.27734-2.0781-0.31641-3.125h6.625c0.86328 0 1.5625-0.69922 1.5625-1.5625z"/>
 <path d="m80.859 28.418c0-0.86328-0.69922-1.5625-1.5625-1.5625h-16.406c-0.41406 0-0.81641 0.16016-1.1094 0.45312-0.29688 0.29688-0.46094 0.69531-0.46094 1.1094 0 0.41797 0.16406 0.81641 0.46094 1.1094 0.29297 0.29297 0.69531 0.45703 1.1094 0.45312h7.3906c0.58203 1.0039 1.0898 2.0469 1.5156 3.125h3.332c-0.36719-1.0664-0.80469-2.1133-1.3047-3.125h5.4727c0.86328 0 1.5625-0.69922 1.5625-1.5625z"/>
 <path d="m24.008 36.23h3.207c1.8867-7.8906 7.7227-14.238 15.422-16.785 7.7031-2.5469 16.172-0.92578 22.391 4.2852h4.5156c-4.4219-4.8164-10.469-7.832-16.973-8.4688-6.5078-0.63281-13.023 1.1523-18.293 5.0234-5.2695 3.8672-8.9297 9.5469-10.27 15.945z"/>
 <path d="m98.438 88.281c-2.1797-0.039062-4.3516 0.23828-6.4453 0.83203-3.7148 0.97266-7.6172 0.97266-11.332 0-2.0977-0.59375-4.2695-0.87109-6.4453-0.83203-2.1797-0.039062-4.3516 0.23828-6.4492 0.83203-1.8398 0.52344-3.75 0.76953-5.6641 0.73047-1.9141 0.039062-3.8203-0.20703-5.6641-0.73047-2.0977-0.59375-4.2695-0.87109-6.4453-0.83203-2.1758-0.039062-4.3477 0.23828-6.4414 0.83203-1.8438 0.52344-3.75 0.76953-5.6641 0.73047-1.9141 0.039062-3.8242-0.20703-5.6641-0.73047-2.0977-0.59375-4.2695-0.87109-6.4453-0.83203-2.1758-0.039062-4.3477 0.23828-6.4453 0.83203-1.8398 0.52344-3.75 0.76953-5.6602 0.73047-1.9141 0.039062-3.8242-0.20703-5.6641-0.73047-2.0977-0.59375-4.2695-0.87109-6.4453-0.83203-0.86328 0-1.5625 0.69922-1.5625 1.5625s0.69922 1.5625 1.5625 1.5625c1.9141-0.039062 3.8203 0.20703 5.6641 0.73047 2.0938 0.59375 4.2656 0.87109 6.4453 0.83203 2.1758 0.039062 4.3477-0.23828 6.4414-0.83203 1.8438-0.52344 3.75-0.76953 5.6641-0.73047 1.9141-0.039062 3.8242 0.20703 5.6641 0.73047 2.0977 0.59375 4.2695 0.87109 6.4453 0.83203 2.1758 0.039062 4.3477-0.23828 6.4453-0.83203 1.8398-0.52344 3.7461-0.76953 5.6602-0.73047 1.9141-0.039062 3.8242 0.20703 5.6641 0.73047 2.0977 0.59375 4.2695 0.87109 6.4453 0.83203 2.1797 0.039062 4.3516-0.23828 6.4453-0.83203 1.8438-0.52344 3.75-0.76953 5.668-0.73047 1.9141-0.039062 3.8203 0.20703 5.6641 0.73047 4.2266 1.1094 8.668 1.1094 12.895 0 1.8398-0.52344 3.75-0.76953 5.6641-0.73047 0.86328 0 1.5625-0.69922 1.5625-1.5625s-0.69922-1.5625-1.5625-1.5625z"/>
 <path d="m86.719 37.793c0-0.86328-0.69922-1.5625-1.5625-1.5625h-28.125c-0.41406-0.003907-0.81641 0.16016-1.1094 0.45312-0.29688 0.29688-0.46094 0.69531-0.46094 1.1094 0 0.41797 0.16406 0.81641 0.46094 1.1094 0.29297 0.29297 0.69531 0.45703 1.1094 0.45312h16.277c0.56641 5.3477-0.75 10.723-3.7266 15.199 1.2695-0.20703 2.5547-0.32031 3.8398-0.33984 2.0664-3.8477 3.1445-8.1484 3.1406-12.516 0-0.78906-0.042969-1.5703-0.11328-2.3438h8.707c0.86328 0 1.5625-0.69922 1.5625-1.5625z"/>
 <path d="m36.277 74.465c-0.027344 0.019531-0.054688 0.042968-0.082032 0.0625l-0.003906-0.003906c-2.2656 1.4453-5.1875 1.3594-7.3672-0.21484-0.57031-0.39453-1.1055-0.83984-1.5977-1.3242-0.44922-0.019531-0.92187-0.035156-1.4492-0.035156-2.1758-0.039063-4.3477 0.23828-6.4453 0.83203-1.8398 0.52344-3.75 0.76953-5.6602 0.73047-1.9141 0.039062-3.8242-0.20703-5.6641-0.73047-2.0977-0.59375-4.2695-0.87109-6.4453-0.83203-0.86328 0-1.5625 0.69922-1.5625 1.5625s0.69922 1.5625 1.5625 1.5625c1.9141-0.039063 3.8203 0.20703 5.6641 0.73047 2.0938 0.59375 4.2656 0.87109 6.4453 0.83203 2.1758 0.039062 4.3477-0.23828 6.4414-0.83203 1.8438-0.52344 3.75-0.76953 5.6641-0.73047 1.9141-0.039063 3.8242 0.20703 5.6641 0.73047 2.0977 0.59375 4.2695 0.87109 6.4453 0.83203 2.1719 0.039062 4.3359-0.23828 6.4258-0.82812 0.89844-1.0234 1.5156-2.2578 1.7969-3.5898-0.86328 0.14453-1.7148 0.33203-2.5586 0.5625-1.8438 0.52344-3.75 0.76953-5.6641 0.73047-0.60156 0-1.125-0.019531-1.6094-0.046875z"/>
 <path d="m98.438 72.949c-2.1797-0.039063-4.3516 0.23828-6.4453 0.83203-3.7148 0.97266-7.6172 0.97266-11.332 0-0.90234-0.24609-1.8164-0.44141-2.7383-0.58594 1.9531 1.7891 4.1719 3.2695 6.5781 4.3867 0.55078 0.035157 1.1484 0.054688 1.8242 0.054688 2.1797 0.039062 4.3516-0.23828 6.4492-0.83203 1.8398-0.52344 3.75-0.76953 5.6641-0.73047 0.86328 0 1.5625-0.69922 1.5625-1.5625s-0.69922-1.5625-1.5625-1.5625z"/>
 <path d="m44.332 68.992c0.41016-0.10547 0.81641-0.20703 1.25-0.30469h-0.003906c-0.90234-1.2109-2.3477-1.8945-3.8594-1.8203-0.87891 0.046874-1.7188 0.375-2.3984 0.9375 0.085938 0.66016 0.082032 1.3281-0.023437 1.9844 1.7031-0.066406 3.3945-0.33203 5.0352-0.79687z"/>
 <path d="m98.438 65.137c-2.1797-0.039063-4.3516 0.23828-6.4453 0.83203-3.7148 0.97266-7.6172 0.97266-11.332 0-2.0977-0.59375-4.2695-0.87109-6.4453-0.83203-1.2578-0.011719-2.5117 0.074219-3.7539 0.25 0.59375 0.64453 1.1797 1.2852 1.7617 1.9219l0.10938 0.12109c0.26172 0.28516 0.52344 0.56641 0.78516 0.85156 0.33984-0.011719 0.70312-0.019531 1.0938-0.019531h0.003906c1.9141-0.039063 3.8203 0.20703 5.6641 0.73047 4.2266 1.1094 8.668 1.1094 12.895 0 1.8398-0.52344 3.75-0.76953 5.6641-0.73047 0.41406 0.003906 0.81641-0.16016 1.1094-0.45312 0.29688-0.29297 0.46094-0.69531 0.46094-1.1094 0-0.41406-0.16406-0.81641-0.46094-1.1094-0.29297-0.29297-0.69531-0.45703-1.1094-0.45312z"/>
 <path d="m1.5625 68.262c1.9141-0.039063 3.8203 0.20703 5.6641 0.73047 2.0938 0.59375 4.2656 0.87109 6.4453 0.83203 2.1758 0.039062 4.3477-0.23828 6.4414-0.83203 1.3477-0.37891 2.7305-0.60938 4.125-0.6875-0.35938-0.99609-0.59375-2.0312-0.69922-3.0859-1.4258 0.11328-2.832 0.36328-4.207 0.75-1.8398 0.52344-3.75 0.76953-5.6602 0.73047-1.9141 0.039062-3.8242-0.20703-5.6641-0.73047-2.0977-0.58984-4.2695-0.87109-6.4453-0.83203-0.41406-0.003907-0.81641 0.16016-1.1094 0.45312-0.29688 0.29297-0.46094 0.69531-0.46094 1.1094 0 0.41406 0.16406 0.81641 0.46094 1.1094 0.29297 0.29297 0.69531 0.45703 1.1094 0.45312z"/>
 <path d="m98.438 57.324c-2.1797-0.039063-4.3516 0.23828-6.4453 0.83203-3.7148 0.97266-7.6172 0.97266-11.332 0-2.0977-0.59375-4.2695-0.87109-6.4453-0.83203-2.1797-0.039063-4.3516 0.23828-6.4492 0.83203-1.2109 0.33984-2.4531 0.5625-3.707 0.66016 0.96094 0.90625 1.8945 1.8242 2.8086 2.7617 0.60547-0.125 1.1484-0.26172 1.6836-0.39844h-0.003906c1.8438-0.52344 3.7539-0.76953 5.668-0.73047 1.9141-0.039063 3.8203 0.20703 5.6641 0.73047 4.2266 1.1094 8.668 1.1094 12.895 0 1.8398-0.52344 3.75-0.76953 5.6641-0.73047 0.41406 0.003906 0.81641-0.16016 1.1094-0.45312 0.29688-0.29297 0.46094-0.69141 0.46094-1.1094 0-0.41406-0.16406-0.8125-0.46094-1.1094-0.29297-0.29297-0.69531-0.45703-1.1094-0.45312z"/>
 <path d="m1.5625 60.449c1.9141-0.039063 3.8203 0.20703 5.6641 0.73047 2.0938 0.59375 4.2656 0.87109 6.4453 0.83203 2.1758 0.039062 4.3477-0.23828 6.4414-0.83203 1.2148-0.34375 2.4609-0.56641 3.7188-0.66406 0.09375-0.41406 0.19922-0.82812 0.33203-1.2422l-0.003906 0.003906c0.21484-0.66406 0.47266-1.3125 0.76953-1.9375-1.8906 0.027344-3.7734 0.30078-5.5977 0.81641-1.8398 0.52344-3.75 0.76953-5.6602 0.73047-1.9141 0.039062-3.8242-0.20703-5.6641-0.73047-2.0977-0.58984-4.2695-0.87109-6.4453-0.83203-0.41406-0.003907-0.81641 0.16016-1.1094 0.45312-0.29688 0.29688-0.46094 0.69531-0.46094 1.1094 0 0.41797 0.16406 0.81641 0.46094 1.1094 0.29297 0.29297 0.69531 0.45703 1.1094 0.45312z"/>
 <path d="m98.438 80.762c-2.1797-0.039063-4.3516 0.23828-6.4453 0.83203-0.83203 0.22656-1.6758 0.40625-2.5273 0.53516-0.074219-0.011718-0.15234-0.023437-0.24219-0.042968-1.1562-0.17188-2.3008-0.40234-3.4297-0.69141-4.3125-1.2422-8.6992-4.2344-13.039-8.8906-0.94922-1.0195-1.8906-2.0508-2.832-3.0781v-0.003906c-3.2617-3.7148-6.7461-7.2305-10.434-10.523-5.875-5.043-11.551-7.5977-17.352-7.8164-5.7969-0.19531-12.789 2.0742-14.992 9.1328-1.4297 4.5391-0.0625 9.0664 3.4727 11.539 1.1602 0.83594 2.7109 0.88672 3.918 0.12109 1.2617-0.80469 1.9219-2.2852 1.6719-3.7617l-0.003906-0.019531v-0.015625 0.003906c-0.12109-0.79688 0.12109-1.6055 0.65234-2.207 1.2422-1.293 2.9297-2.0547 4.7188-2.1289 2.8906-0.15625 5.6172 1.3555 7.0156 3.8906 1.4805 2.9453 1.0312 7.043-1.1211 10.199h-0.003906c-1.1133 1.6055-2.5938 2.9297-4.3164 3.8594-1.7148 0.45313-3.4883 0.66797-5.2617 0.62891-1.9141 0.039062-3.8242-0.20703-5.6641-0.73047-2.0977-0.59375-4.2695-0.87109-6.4453-0.83203-2.1758-0.039063-4.3477 0.23828-6.4453 0.83203-1.8398 0.52344-3.75 0.76953-5.6602 0.73047-1.9141 0.039062-3.8242-0.20703-5.6641-0.73047-2.0977-0.59375-4.2695-0.87109-6.4453-0.83203-0.86328 0-1.5625 0.69922-1.5625 1.5625s0.69922 1.5625 1.5625 1.5625c1.9141-0.039063 3.8203 0.20703 5.6641 0.73047 2.0938 0.59375 4.2656 0.87109 6.4453 0.83203 2.1758 0.039062 4.3477-0.23828 6.4414-0.83203 1.8438-0.52344 3.75-0.76953 5.6641-0.73047 1.9141-0.039063 3.8242 0.20703 5.6641 0.73047 2.0977 0.59375 4.2695 0.87109 6.4453 0.83203 2.0977 0.039062 4.1875-0.21875 6.2109-0.76953l0.039063-0.011719c0.0625-0.015625 0.12891-0.03125 0.19531-0.050781 1.8398-0.52344 3.7461-0.76953 5.6602-0.73047 1.9141-0.039063 3.8242 0.20703 5.6641 0.73047 2.0977 0.59375 4.2695 0.87109 6.4453 0.83203 2.1797 0.039062 4.3516-0.23828 6.4453-0.83203 1.8438-0.52344 3.75-0.76953 5.668-0.73047 1.9141-0.039063 3.8203 0.20703 5.6641 0.73047 2.0977 0.59375 4.2695 0.87109 6.4453 0.83203 1.1562 0.007812 2.3086-0.0625 3.4531-0.21094l0.019531-0.003906-0.003906 0.003906c1.0039-0.14453 2-0.35156 2.9805-0.62109 1.8398-0.52344 3.75-0.76953 5.6641-0.73047 0.86328 0 1.5625-0.69922 1.5625-1.5625s-0.69922-1.5625-1.5625-1.5625zm-24.223 0c-2.1797-0.039063-4.3516 0.23828-6.4492 0.83203-1.8398 0.52344-3.75 0.76953-5.6641 0.73047-1.9141 0.039062-3.8203-0.20703-5.6641-0.73047-2.0977-0.59375-4.2695-0.87109-6.4453-0.83203-0.30078 0-0.57422 0.007812-0.84766 0.015625 0.32031-0.37891 0.625-0.77344 0.90234-1.1836 2.8164-4.1289 3.3398-9.375 1.332-13.363-1.9531-3.6367-5.832-5.8242-9.957-5.6094-2.668 0.11328-5.1797 1.2891-6.9766 3.2656-1.0938 1.2773-1.582 2.9688-1.3359 4.6328 0 0.015625 0.003906 0.027344 0.003906 0.042969s0.003907 0.027344 0.003907 0.039062h0.003906c0.058594 0.23828-0.039063 0.48828-0.24219 0.625-0.14844 0.09375-0.33594 0.078126-0.46875-0.035156-2.3984-1.6758-3.2969-4.832-2.2852-8.043 1.6797-5.3828 7.25-7.1172 11.895-6.9453 5.0703 0.19141 10.117 2.5 15.434 7.0625v0.003906c3.5898 3.2109 6.9844 6.6406 10.16 10.262 0.94531 1.0352 1.8984 2.0703 2.8516 3.1016 2.1914 2.3945 4.6484 4.5273 7.332 6.3555-1.1875-0.16016-2.3867-0.23438-3.582-0.22656z"/>
 <path d="m77.98 10.234c-0.23438-1.2969-1.0625-2.4141-2.2383-3.0156-0.75781-0.41016-1.707-0.125-2.1172 0.63281-0.41016 0.75781-0.12891 1.707 0.63281 2.1172 0.51563 0.25 0.79297 0.81641 0.67969 1.3789-0.042969 0.78516 0.50391 1.4844 1.2812 1.6289 0.81641 0.13281 1.5703 0.52734 2.1445 1.1328 0.21875 0.35156 0.56641 0.60156 0.97266 0.69531 0.40234 0.097656 0.82812 0.027343 1.1797-0.19531 0.35156-0.21875 0.60156-0.57031 0.69531-0.97266 0.09375-0.40625 0.023437-0.82812-0.19922-1.1797-0.73828-1.0547-1.8047-1.8359-3.0312-2.2227z"/>
 <path d="m20.352 15.52c-1.1758 0.60156-2.0039 1.7148-2.2383 3.0156-1.2266 0.38672-2.293 1.168-3.0312 2.2227-0.22266 0.35156-0.29297 0.77344-0.20312 1.1797 0.09375 0.40625 0.34375 0.75781 0.69922 0.97656 0.35156 0.21875 0.77734 0.28906 1.1797 0.19531 0.40625-0.09375 0.75781-0.34766 0.97266-0.69922 0.57031-0.60156 1.3203-1 2.1406-1.1328 0.77734-0.13672 1.332-0.83984 1.2852-1.6289-0.11328-0.5625 0.16406-1.1289 0.67969-1.3789 0.76172-0.41016 1.043-1.3594 0.63281-2.1172-0.41016-0.75781-1.3594-1.043-2.1172-0.63281z"/>
 <path d="m35.621 48.73h-24.684c-0.86328 0-1.5625 0.69922-1.5625 1.5625s0.69922 1.5625 1.5625 1.5625h14.535c0.33594 0.80469 0.70312 1.5938 1.1133 2.3594 0.089843 0.003906 0.16797 0.007812 0.25781 0.011718l0.003906-0.003906c0.64062-0.79688 1.3594-1.5234 2.1484-2.1758-0.03125-0.066406-0.070313-0.12891-0.10156-0.19141h0.35547c1.8945-1.457 4.0586-2.5156 6.3711-3.125z"/>
<text x="0.0" y="117.5" font-size="5.0" font-weight="bold" font-family="Arbeit Regular, Helvetica, Arial-Unicode, Arial, Sans-serif" fill="#000000">Created by WEBTECHOPS LLP</text><text x="0.0" y="122.5" font-size="5.0" font-weight="bold" font-family="Arbeit Regular, Helvetica, Arial-Unicode, Arial, Sans-serif" fill="#000000">from Noun Project</text></svg>