<svg xmlns="http://www.w3.org/2000/svg" xmlns:xlink="http://www.w3.org/1999/xlink" version="1.1" x="0px" y="0px" viewBox="0 0 100 125" style="enable-background:new 0 0 100 100;" xml:space="preserve"><g><path d="M71.29,24.72c0-1.61-1.31-2.92-2.92-2.92c-1.61,0-2.92,1.31-2.92,2.92s1.31,2.92,2.92,2.92   C69.98,27.64,71.29,26.33,71.29,24.72z"/><path d="M85.29,45.72c0-1.61-1.31-2.92-2.92-2.92c-1.61,0-2.92,1.31-2.92,2.92s1.31,2.92,2.92,2.92   C83.98,48.64,85.29,47.33,85.29,45.72z"/><path d="M62.45,79.72c0,1.61,1.31,2.92,2.92,2.92c1.61,0,2.92-1.31,2.92-2.92s-1.31-2.92-2.92-2.92   C63.76,76.81,62.45,78.11,62.45,79.72z"/><path d="M15.45,71.72c0,1.61,1.31,2.92,2.92,2.92c1.61,0,2.92-1.31,2.92-2.92s-1.31-2.92-2.92-2.92   C16.76,68.81,15.45,70.11,15.45,71.72z"/><path d="M81.16,73.89c0.71-3.05,0.69-6.19-0.07-9.08c-0.42-1.6-0.96-3.16-1.5-4.53c-0.23,5.43-2.05,9.6-2.68,10.91   c1.71,4.08,2.45,7.37,2.23,9.9C79.75,79.43,80.44,76.96,81.16,73.89z"/><path d="M44.73,54.5c1.96,5.39,5.82,18.49,0.79,27.07c0.88,0.57,1.68,1.21,2.36,1.91c1.13-0.54,2.4-0.91,3.75-1.08   c-0.15-1.36-0.39-4.62,0.22-8.56l0.01-0.35c-2.24-5.85-1.85-12.66-1.13-17.37c0.62-4.05,1.93-8.13,3.89-12.13   c5.54-11.3,2.79-22.69,0.14-29.37c0.41,6.64-0.83,14.61-3.7,23.79C48.54,46.45,45.51,52.87,44.73,54.5z"/><path d="M37.63,59.47c1.51,4.18,2.24,8.31,2.59,11.78c0.04,0.11,0.09,0.24,0.11,0.33c0.04,0.17,0.02,0.34-0.03,0.5   c0.29,3.36,0.21,5.98,0.14,7.26c1.16,0.31,2.28,0.72,3.33,1.24c5.85-9.91-1.75-27.52-1.83-27.71c-0.01-0.03-0.03-0.07-0.04-0.1   c-3.54-11.24-0.95-20.39,1.68-25.9C33.65,37.59,34.91,51.93,37.63,59.47z"/><path d="M30.49,67.88c2.12,2.88,4.42,9.24,5.01,10.91c0.22-0.01,0.43-0.03,0.65-0.03c0.76,0,1.54,0.06,2.31,0.18   c0.06-1.4,0.1-4.06-0.22-7.34c-0.52-1.29-2.23-4.1-4.63-7.6c-0.88-1.28-1.58-2.46-2.14-3.62c-3.73-7.71-3.75-14.8-2.84-19.94   C21.76,55.23,29.46,66.47,30.49,67.88z"/><path d="M78.68,84.08c-1.11-0.38-2.3-0.57-3.53-0.57c-4.21,0-7.6,2.07-8.26,4.86l16.51,0.19C82.94,86.63,81.19,84.94,78.68,84.08z"/><path d="M64.41,60.19c0.7,2.75,1.9,5.48,3.68,8.33c3.76,6.02,4.82,11.12,5.1,13.13c0.63-0.09,1.28-0.13,1.95-0.13   c0.64,0,1.28,0.05,1.9,0.14c0.52-2.68-0.37-7.98-6.47-18.48c-1.13-1.95-1.94-3.74-2.47-5.48c-2.07-6.78-1.56-13.86-0.87-18.28   C62.54,46.84,63.01,54.63,64.41,60.19z"/><path d="M53.84,74.07l-0.13,8.25c0.93,0.03,1.83,0.16,2.69,0.38c0.67-3.93,3.64-10.29,4.02-11.08c1.42-4.8-0.45-10.5-2.27-14.44   c-0.04,1.03-0.16,2.16-0.36,3.36c-0.36,2.26-1.06,4.55-2.19,7.23C54.7,69.91,54.16,72.08,53.84,74.07z"/><path d="M43.41,88.06c0.49-1.37,1.44-2.57,2.69-3.52c-2.38-2.26-6.29-3.78-9.95-3.78c-5.08,0-11.14,3.08-12.02,7.08L43.41,88.06z"/><path d="M53.24,84.3c-3.41,0-6.44,1.56-7.65,3.79l15.4,0.18C59.85,85.94,56.77,84.3,53.24,84.3z"/></g><text x="0" y="115" fill="#000000" font-size="5px" font-weight="bold" font-family="'Helvetica Neue', Helvetica, Arial-Unicode, Arial, Sans-serif">Created by Icon Depot</text><text x="0" y="120" fill="#000000" font-size="5px" font-weight="bold" font-family="'Helvetica Neue', Helvetica, Arial-Unicode, Arial, Sans-serif">from the Noun Project</text></svg>