<svg xmlns="http://www.w3.org/2000/svg" xmlns:xlink="http://www.w3.org/1999/xlink" version="1.1" x="0px" y="0px" viewBox="0 0 60 75" enable-background="new 0 0 60 60" xml:space="preserve"><g><path d="M56.395,19.006c-0.053,0.014-0.094,0.044-0.139,0.068c-0.021,0.013-0.043,0.02-0.066,0.035   c-0.031,0.022-0.053,0.053-0.08,0.081c-0.033,0.033-0.064,0.064-0.088,0.105c-0.012,0.015-0.014,0.031-0.021,0.048   c-0.023,0.05-0.053,0.101-0.063,0.159c-1.121,6.183-8.184,7.174-8.404,7.209c-4.463,0-7.521-1.058-9.088-3.146   c-1.01-1.346-1.199-2.893-1.166-4.019c0.756,0.749,1.789,1.213,2.934,1.22c0.004,0,0.008,0.002,0.01,0.002c0.004,0,0.006,0,0.008,0   s0.002,0,0.006,0c0,0,0,0,0.002,0c2.641-0.006,5.459-1.696,5.459-6.425c0-4.525-3.207-9.253-9.336-9.537   c-4.588-0.219-6.953,2.928-7.824,4.447c-1.268-0.905-2.998-0.984-3.115-0.988c-5.494,0.117-8.125,5.924-10.447,11.046   c-1.314,2.905-2.561,5.651-4.119,6.912c-4.025,3.253-7.863,0.141-8.025,0.007c-0.02-0.018-0.047-0.022-0.066-0.036   c-0.039-0.025-0.078-0.05-0.123-0.066c-0.039-0.013-0.076-0.018-0.115-0.024c-0.031-0.005-0.059-0.02-0.09-0.02   c-0.002,0-0.006,0-0.008,0c-0.01,0-0.02,0.006-0.031,0.006c-0.039,0.003-0.076,0.014-0.113,0.023   c-0.043,0.01-0.084,0.018-0.121,0.035c-0.031,0.015-0.059,0.038-0.088,0.059C2.037,26.235,2,26.26,1.969,26.293   c-0.008,0.007-0.018,0.011-0.023,0.019c-0.02,0.021-0.023,0.049-0.039,0.073c-0.023,0.037-0.047,0.072-0.063,0.113   c-0.016,0.043-0.02,0.086-0.027,0.129c-0.002,0.028-0.018,0.052-0.018,0.08v0.3c0,1.106,0.07,2.196,0.193,3.271   c0.004,0.028,0.006,0.056,0.014,0.084c0.773,6.488,3.75,12.309,8.17,16.681c0.053,0.072,0.117,0.135,0.193,0.182   c5.08,4.933,12.004,7.979,19.627,7.979c8.785,0,16.643-4.04,21.818-10.359c0.027-0.026,0.061-0.048,0.084-0.081   c0.01-0.016,0.012-0.034,0.021-0.052c0.531-0.658,1.037-1.339,1.512-2.045c0.004-0.005,0.012-0.008,0.018-0.013   c0.033-0.039,0.051-0.087,0.076-0.131c0.584-0.884,1.117-1.804,1.602-2.752c0.004-0.006,0.012-0.01,0.016-0.016   c0.041-0.056,0.063-0.117,0.082-0.177c0.43-0.859,0.818-1.739,1.16-2.646c0.014-0.026,0.021-0.055,0.031-0.084   c1.146-3.066,1.777-6.382,1.777-9.842c0-2.569-0.346-5.113-1.025-7.563C57.074,19.109,56.732,18.912,56.395,19.006z M3.234,30.011   c-0.076-0.697-0.109-1.407-0.133-2.12c0.891,0.49,2.262,1.058,3.891,1.058c1.422,0,3.031-0.436,4.654-1.745   c1.793-1.45,3.096-4.325,4.475-7.372c2.273-5.018,4.625-10.207,9.287-10.306c0.547,0.021,2.119,0.268,2.82,1.148   c0.143,0.174,0.377,0.262,0.588,0.229c0.221-0.035,0.41-0.185,0.492-0.394c0.02-0.047,1.844-4.639,6.994-4.445   c5.34,0.248,8.137,4.354,8.137,8.281c0,4.782-3.209,5.165-4.207,5.167c-1.619-0.001-2.936-1.319-2.936-2.939   s1.316-2.938,2.939-2.938c0.707,0,1.391,0.255,1.926,0.718c0.191,0.164,0.459,0.201,0.686,0.09   c0.225-0.109,0.365-0.345,0.354-0.596c-0.002-0.04-0.305-3.998-6.563-3.675C32,10.38,30.322,14.216,29.77,16.162   c-1.02-0.851-2.828-2.116-4.563-2.125c-0.008,0-0.012,0-0.02,0c-0.883,0-1.643,0.314-2.262,0.935   c-0.814,0.811-1.691,2.55-2.805,4.75c-2.424,4.8-5.746,11.373-10.219,11.729C5.209,31.816,3.582,30.396,3.234,30.011z    M51.203,43.563c-6.293-3.941-9.422-0.295-12.186,2.956c-0.246,0.288-0.494,0.578-0.742,0.866   c-3.059,3.508-10.164,6.296-10.236,6.324c-0.076,0.03-0.141,0.074-0.197,0.127c-2.404-0.191-4.711-0.705-6.895-1.487   c2.828-0.848,8.652-3.095,13.641-8.257c6.793-7.027,13.996-4.551,17.523-1.746C51.822,42.762,51.516,43.163,51.203,43.563z    M54.355,38.433c-8.58-5.928-17.578-5.401-24.795,1.519c-7.424,7.121-17.063,6.315-18.557,6.141   c-1.549-1.544-2.891-3.291-4.033-5.173c1.373,0.67,3.553,1.438,6.438,1.438c3.254,0,7.369-0.983,12.119-4.208   c10.512-7.141,12.604-7.097,16.09-7.034c0.369,0.008,0.756,0.015,1.166,0.015c4.115,0,11.297,4.126,12.336,5.525   C54.885,37.26,54.631,37.851,54.355,38.433z"/><circle cx="50.996" cy="18.167" r="2.833"/><circle cx="56.162" cy="12.88" r="2.038"/><circle cx="50.996" cy="7.813" r="1.721"/></g><text x="0" y="75" fill="#000000" font-size="5px" font-weight="bold" font-family="'Helvetica Neue', Helvetica, Arial-Unicode, Arial, Sans-serif">Created by arista septiana dewi</text><text x="0" y="80" fill="#000000" font-size="5px" font-weight="bold" font-family="'Helvetica Neue', Helvetica, Arial-Unicode, Arial, Sans-serif">from the Noun Project</text></svg>