<svg xmlns="http://www.w3.org/2000/svg" version="1.1" viewBox="-5.0 -10.0 110.0 135.0">
 <path d="m50 40.082c5.0742 0 8.6211 4.5703 8.6211 9.4219 0 1.8867-0.28516 3.3984-0.94922 4.6445-0.67969 1.2734-1.7344 2.2266-3.2578 2.9727-0.13281 0.066406 1.9844 6.9766 0.33203 7.4219-0.83984 0.22656-2.0117-1.4844-3.1719-3.1797-0.83984-1.2266-1.4805-2.4375-1.5742-2.4375-2.3945 0-4.5586-1.0664-6.1211-2.7891-1.5469-1.7031-2.5-4.0508-2.5-6.6367 0-4.8516 3.5469-9.4219 8.6211-9.4219zm0 1.5625c-4.207 0-7.0586 3.875-7.0586 7.8594 0 2.1875 0.80078 4.1602 2.0898 5.5859 1.2734 1.4062 3.0312 2.2734 4.9688 2.2734 1.4609 0 2.6406 3.9141 4.2344 5.4414 0.011719-1.6445-2.1211-6.293-0.50391-7.082 1.2188-0.59766 2.0508-1.3398 2.5664-2.3086 0.53125-0.99609 0.76172-2.2734 0.76172-3.9102 0-3.9883-2.8516-7.8594-7.0586-7.8594z"/>
 <path d="m46.738 47.938c-0.42969 0-0.78125 0.35156-0.78125 0.78125s0.35156 0.78125 0.78125 0.78125h6.5234c0.42969 0 0.78125-0.35156 0.78125-0.78125s-0.35156-0.78125-0.78125-0.78125z"/>
 <path d="m46.738 44.793c-0.42969 0-0.78125 0.35156-0.78125 0.78125 0 0.42969 0.35156 0.78125 0.78125 0.78125h6.5234c0.42969 0 0.78125-0.35156 0.78125-0.78125 0-0.42969-0.35156-0.78125-0.78125-0.78125z"/>
 <path d="m46.738 51.078c-0.42969 0-0.78125 0.35156-0.78125 0.78125s0.35156 0.78125 0.78125 0.78125h6.5234c0.42969 0 0.78125-0.35156 0.78125-0.78125s-0.35156-0.78125-0.78125-0.78125z"/>
 <path d="m23.629 30.926c5.0039 0 8.5039 4.5078 8.5039 9.293s-3.5 9.293-8.5039 9.293-8.5039-4.5078-8.5039-9.293 3.5-9.293 8.5039-9.293zm0 1.5625c-4.1367 0-6.9414 3.8086-6.9414 7.7305 0 3.918 2.8047 7.7305 6.9414 7.7305 4.1367 0 6.9414-3.8086 6.9414-7.7305 0-3.918-2.8047-7.7305-6.9414-7.7305z"/>
 <path d="m16.906 36.84c-0.35547-0.23828-0.83984-0.14453-1.082 0.21484-0.23828 0.35547-0.14453 0.83984 0.21484 1.082 5.8359 3.918 7.3945 2.2148 9.3477 0.35547 1.082-1.0312 2.0703-2.1797 4.5781-1.9062 0.42969 0.046874 0.8125-0.26563 0.85938-0.69141 0.046875-0.42969-0.26562-0.8125-0.69141-0.85938-3.2227-0.35156-4.4844 1.0586-5.8164 2.3281-1.4688 1.3984-2.6094 2.6992-7.4062-0.52344z"/>
 <path d="m22.012 52.527h3.2383c3.6914 0 7.0469 1.5078 9.4766 3.9414 2.4297 2.4297 3.9414 5.7852 3.9414 9.4766v4.0742c0 0.42969-0.35156 0.78125-0.78125 0.78125h-28.508c-0.42969 0-0.78125-0.35156-0.78125-0.78125v-4.0742c0-3.6914 1.5078-7.0469 3.9414-9.4766 2.4297-2.4297 5.7852-3.9414 9.4766-3.9414zm3.2383 1.5625h-3.2383c-3.2578 0-6.2227 1.332-8.3711 3.4844-2.1484 2.1484-3.4844 5.1133-3.4844 8.3711v3.293h26.945v-3.293c0-3.2578-1.332-6.2227-3.4844-8.3711-2.1484-2.1484-5.1133-3.4844-8.3711-3.4844z"/>
 <path d="m11.73 66.309c0 0.42969 0.35156 0.78125 0.78125 0.78125 0.42969 0 0.78125-0.35156 0.78125-0.78125 0-2.5117 0.92578-4.7891 2.4219-6.4375 1.4766-1.6289 3.5078-2.6406 5.7383-2.6406 0.42969 0 0.78125-0.35156 0.78125-0.78125 0-0.42969-0.35156-0.78125-0.78125-0.78125-2.6875 0-5.1289 1.207-6.8906 3.1523-1.7461 1.9258-2.832 4.5742-2.832 7.4844z"/>
 <path d="m76.371 30.926c2.3633 0 4.4961 1.0508 6.0352 2.75 1.5234 1.6797 2.4648 3.9922 2.4648 6.543s-0.94141 4.8633-2.4648 6.543c-1.5391 1.6992-3.6758 2.75-6.0352 2.75-2.3633 0-4.4961-1.0508-6.0352-2.75-1.5234-1.6797-2.4648-3.9922-2.4648-6.543s0.94141-4.8633 2.4648-6.543c1.5391-1.6992 3.6758-2.75 6.0352-2.75zm4.8828 3.8008c-1.2539-1.3828-2.9805-2.2383-4.8828-2.2383-1.8867 0-3.6172 0.84375-4.8828 2.2383-1.2695 1.4023-2.0586 3.3438-2.0586 5.4922 0 2.1523 0.78516 4.0938 2.0586 5.4922 1.2539 1.3828 2.9805 2.2383 4.8828 2.2383s3.6289-0.85547 4.8828-2.2383c1.2695-1.4023 2.0586-3.3438 2.0586-5.4922 0-2.1523-0.78516-4.0938-2.0586-5.4922z"/>
 <path d="m69.746 36.906c-0.35547-0.23828-0.83984-0.14453-1.082 0.21484-0.23828 0.35547-0.14453 0.83984 0.21484 1.082 5.8359 3.918 7.2969 2.1523 9.25 0.29297 1.082-1.0312 2.0703-2.1797 4.5781-1.9062 0.42969 0.046875 0.8125-0.26562 0.85938-0.69141 0.046875-0.42969-0.26562-0.8125-0.69141-0.85938-3.2227-0.35156-4.4844 1.0586-5.8164 2.3281-1.4688 1.3984-2.5117 2.7656-7.3125-0.45703z"/>
 <path d="m74.754 52.527h3.2383c3.6914 0 7.0469 1.5078 9.4766 3.9414 2.4297 2.4297 3.9414 5.7852 3.9414 9.4766v4.0742c0 0.42969-0.35156 0.78125-0.78125 0.78125h-28.508c-0.42969 0-0.78125-0.35156-0.78125-0.78125v-4.0742c0-3.6914 1.5078-7.0469 3.9414-9.4766 2.4297-2.4297 5.7852-3.9414 9.4766-3.9414zm3.2383 1.5625h-3.2383c-3.2578 0-6.2227 1.332-8.3711 3.4844-2.1484 2.1484-3.4844 5.1133-3.4844 8.3711v3.293h26.945v-3.293c0-3.2578-1.332-6.2227-3.4844-8.3711-2.1484-2.1484-5.1133-3.4844-8.3711-3.4844z"/>
 <path d="m64.473 66.309c0 0.42969 0.35156 0.78125 0.78125 0.78125 0.42969 0 0.78125-0.35156 0.78125-0.78125 0-2.5117 0.92578-4.7891 2.4219-6.4375 1.4766-1.6289 3.5078-2.6406 5.7383-2.6406 0.42969 0 0.78125-0.35156 0.78125-0.78125 0-0.42969-0.35156-0.78125-0.78125-0.78125-2.6875 0-5.1289 1.207-6.8906 3.1523-1.7461 1.9258-2.832 4.5742-2.832 7.4844z"/>
 <path d="m61.688 41.156v-1.6445h1.4922v1.6445z"/>
 <path d="m61.766 38.262c-0.003906-0.19141-0.007813-0.33594-0.007813-0.43359 0-0.56641 0.070313-1.0547 0.21875-1.4688 0.10547-0.30859 0.27734-0.62109 0.51563-0.9375 0.17187-0.23047 0.48828-0.5625 0.94141-1.0039 0.45312-0.44531 0.74609-0.79297 0.88281-1.0586 0.13672-0.26172 0.20312-0.54688 0.20312-0.85547 0-0.5625-0.19922-1.0547-0.59766-1.4805-0.39844-0.42578-0.88672-0.63672-1.4609-0.63672-0.55859 0-1.0234 0.19531-1.3945 0.57812-0.375 0.38672-0.61719 0.98828-0.73438 1.8086l-1.3477-0.17969c0.12109-1.0938 0.48047-1.9336 1.082-2.5195 0.59766-0.58203 1.3906-0.875 2.375-0.875 1.043 0 1.875 0.3125 2.4961 0.9375s0.92969 1.3789 0.92969 2.2695c0 0.51172-0.10938 0.98438-0.32813 1.418-0.21875 0.43359-0.64453 0.96094-1.2773 1.5781-0.42578 0.41797-0.70703 0.72656-0.83594 0.92188-0.13281 0.19922-0.22656 0.42578-0.28906 0.67969-0.066407 0.25781-0.097657 0.67188-0.10938 1.25h-1.2578z"/>
<text x="0.0" y="117.5" font-size="5.0" font-weight="bold" font-family="Arbeit Regular, Helvetica, Arial-Unicode, Arial, Sans-serif" fill="#000000">Created by Jamil Akhtar</text><text x="0.0" y="122.5" font-size="5.0" font-weight="bold" font-family="Arbeit Regular, Helvetica, Arial-Unicode, Arial, Sans-serif" fill="#000000">from Noun Project</text></svg>