<svg xmlns="http://www.w3.org/2000/svg" version="1.1" viewBox="-5.0 -10.0 110.0 135.0">
 <path d="m8.3516 57.711c2.1445-1.4023 4.1172-3.0508 5.8789-4.9102 1.3242-1.3242 2.2578-2.9844 2.6992-4.8008 0.23437-1.4375-0.097657-2.9102-0.92969-4.1094-0.51172-0.77344-1.125-1.4766-1.8203-2.0898l-0.070313-0.058593v-0.003907c-2-1.7656-3.5469-3.9844-4.5195-6.4688-0.1875-0.51172-0.34375-1.0391-0.46875-1.5703-2.6523 7.7422-2.9336 16.098-0.8125 24zm75.09-30.391c-1.2188-0.46094-1.8516 0.17969-2.8516 1.1914-1.1016 1.1914-2.3555 2.2305-3.7305 3.0898h-0.089844c-2.3867 1.4844-5.2148 2.0859-8 1.6992-2.6719-0.59375-5.0117-2.1992-6.5312-4.4805-0.38281-0.48437-0.34766-1.1758 0.082031-1.6211 1.1602-1.1602 1.7695-2.7617 1.6797-4.3984-0.22266-2.3125-1.0195-4.5273-2.3203-6.4492-0.078126-0.10937-0.14063-0.22656-0.17969-0.35156-0.17969-0.65234 0.19922-1.3242 0.85156-1.5117 2.8789-0.82031 3.2812-1.7188 3-2.8711v0.003906c-0.17578-0.57031-0.38672-1.1289-0.63281-1.6719-5.3359-2.4375-11.133-3.6914-17-3.6797-2.6406-0.007812-5.2734 0.23828-7.8672 0.73047 0.19922 6.6484-1.8281 7.6602-6.0781 9.7891-0.75 0.37891-1.5898 0.80078-2.5312 1.3203h-0.003907c-1.5781 1.0156-2.6172 2.6914-2.8164 4.5625-0.21094 1.3125-0.14062 2.6562 0.20703 3.9375 0.32422 1.2305 0.97266 2.3516 1.8828 3.2422 1.4414 1.2891 3.3828 1.8711 5.2969 1.5781 1.5312-0.23438 3.0938-0.027344 4.5117 0.58984 1.4297 0.68359 2.6523 1.7383 3.5391 3.0508v0.070313c0.76172 1.3516 1.8398 2.4961 3.1406 3.3398 1.2617 0.60156 2.7227 0.62109 4 0.050781 0.60547-0.22266 1.2461-0.33594 1.8906-0.33203 0.90234-0.007813 1.7773 0.32031 2.4492 0.92188 0.58984 0.54688 1.0352 1.2344 1.2891 2 0.28906 0.95312 0.41406 1.9531 0.37109 2.9492-0.10156 7-0.87891 8.4805-4.2305 8.4297-0.95312-0.042969-1.9062-0.14844-2.8477-0.30859-3.8008-0.66016-7.6719-0.80469-11.512-0.42969-1.1133 0.11328-2.0898 0.77734-2.6094 1.7695-0.28516 0.51172-0.4375 1.0898-0.44141 1.6797 0.015625 0.63672 0.20312 1.2539 0.55078 1.7891 1 1.6016 3.5195 3 8.1992 3.6289 2.6992 0.32812 3.8594 1.8594 5 3.4219 1.3516 1.7812 2.7305 3.6016 8.2891 1.9414h0.058593l0.003907-0.003907c3.9453-1.5234 7.6836-3.5391 11.129-6 1.2656-0.88281 2.3711-1.9766 3.2617-3.2383 0.50391-0.61328 0.59766-1.4688 0.23828-2.1797-0.37891-0.51172-0.87891-0.92187-1.4492-1.1992-4.4688-2.7617-6-5.6797-6-7.9102-0.03125-1.0234 0.28125-2.0273 0.89062-2.8516 0.55078-0.75781 1.375-1.2695 2.2969-1.4297 1.2656-0.19922 2.5234 0.39453 3.1719 1.5 0.60547 0.97266 1.3555 1.8398 2.2305 2.582 0.55078 0.48828 1.2188 0.83594 1.9414 1 0.52344 0.09375 1.0664-0.023438 1.5078-0.32031 0.28516-0.19141 0.53516-0.42578 0.75-0.69141l8.7891-11.809c-0.74609-2.1094-1.6602-4.1523-2.7383-6.1133zm-15.621-15.789c3.1992 1.8125 6.1406 4.0508 8.7383 6.6484 1.9648 1.9727 3.7227 4.1367 5.25 6.4609-1.0781 0.23047-1.8984 1.0586-3 2.1484-0.96094 1.0469-2.0586 1.9609-3.2578 2.7227-1.9062 1.207-4.1719 1.7148-6.4102 1.4297-1.7539-0.39453-3.3164-1.3828-4.4219-2.8008 1.207-1.5469 1.8125-3.4727 1.7109-5.4297-0.17969-2.2461-0.86328-4.4258-2-6.3711 3.1602-1.2109 3.7383-2.8008 3.3281-4.8086zm-30.41 75c-13.27-3.4766-23.906-13.383-28.309-26.371 2.5586-1.6055 4.9102-3.5234 7-5.7109 1.6289-1.6562 2.7695-3.7344 3.2891-6 0.37891-2.0508-0.066406-4.1719-1.2422-5.8984-0.64453-0.94531-1.4102-1.8047-2.2773-2.5508-1.7188-1.5-3.0469-3.3867-3.8828-5.5117-0.6875-1.918-0.85938-3.9883-0.5-6 5.3164-10.32 14.77-17.895 26-20.828 0 4.6719-1.5586 5.4609-4.7188 7-0.80078 0.39844-1.6914 0.83984-2.6289 1.3711-2.2539 1.3398-3.7773 3.6328-4.1406 6.2305-0.27344 1.6641-0.17969 3.3711 0.26953 5 0.44531 1.6562 1.3242 3.168 2.5508 4.3672 1.9648 1.7969 4.6289 2.6133 7.2578 2.2305 1.082-0.16797 2.1875-0.03125 3.1914 0.40234 1.0312 0.50781 1.9102 1.2773 2.5508 2.2266 0.96875 1.6992 2.3398 3.1289 4 4.1602 1.8398 0.9375 4 1.0156 5.8984 0.21094 0.34375-0.12109 0.70703-0.19141 1.0703-0.19922 0.3125-0.003906 0.61328 0.10156 0.85156 0.30078 0.27734 0.27734 0.48047 0.62109 0.58984 1 0.21094 0.67969 0.30859 1.3867 0.28906 2.0977-0.070312 4.9414-0.39844 6-1.7617 6h0.003907c-0.84375-0.050782-1.6797-0.15234-2.5117-0.29688-3.9805-0.6875-8.0391-0.83203-12.059-0.43359-2.0391 0.19141-3.8281 1.4297-4.7188 3.2695-0.89453 1.8398-0.76172 4.0156 0.34766 5.7305 1.3906 2.1484 4.4492 4 10 4.7305 1.6719 0.19922 2.5117 1.3203 3.3711 2.4609 1.8594 2.4609 3.7617 5 11 2.8086h0.10938c4.1992-1.6328 8.1797-3.7891 11.848-6.4062 1.5078-1.0664 2.8125-2.3945 3.8516-3.9219 1.0508-1.3945 1.1367-3.2852 0.21875-4.7695-0.58594-0.84766-1.3711-1.5312-2.2891-2-3.6094-2.2188-4.8203-4.3281-4.8516-5.8516-0.039063-0.48828 0.089844-0.97266 0.36328-1.3789 0.16797-0.24609 0.42578-0.41406 0.71875-0.46875 0.3125-0.019531 0.60156 0.15625 0.73047 0.4375 0.75 1.1836 1.6719 2.2461 2.7383 3.1523 0.87891 0.75781 1.9414 1.2734 3.082 1.5 1.1328 0.22656 2.3164 0.007812 3.2891-0.62109 0.50781-0.33594 0.96094-0.74609 1.3398-1.2188v-0.050781l7.7383-10.398v-0.003906c0.94531 3.4805 1.4258 7.0664 1.4219 10.672 0 1.418-0.066406 2.8359-0.21094 4.25-0.14062 1.2695-0.32812 2.5195-0.57031 3.7617-3.6797 3.1602-7.8594 5.2383-11.859 7.2305-7.7812 3.8984-14.859 7.4492-17.078 17.289-0.75391-1.3516-1.6641-2.6055-2.7109-3.7422-2.3203-2.4648-5.1172-4.4336-8.2188-5.7891-3.2461-1.2539-6.6523-2.0273-10.121-2.2891-3.832-0.44922-7.6992-0.44922-11.531 0-0.65625 0.11719-1.1016 0.73828-1 1.3984 0.054687 0.36719 0.27344 0.6875 0.58984 0.87109 5 3.3516 7.4297 8.1719 9.6797 12.68 0.64844 1.3086 1.2891 2.6016 2 3.8203zm20.461 7.0508v-0.003906c-1.6484-2.2344-3.4727-4.3398-5.4492-6.2891-2.4062-2.3711-5.0508-4.4883-7.8906-6.3203-0.55859-0.375-0.71875-1.1289-0.35938-1.6992 0.36719-0.56641 1.1289-0.73047 1.6992-0.35938 2.9727 1.9258 5.7422 4.1445 8.2695 6.6289 1.4688 1.4375 2.8477 2.9609 4.1406 4.5625-0.16406-1.8945-0.20312-3.793-0.12109-5.6914-0.74219-2.5781-2.0781-4.9492-3.8984-6.9219-2.1055-2.2109-4.6328-3.9766-7.4336-5.1875-3-1.1406-6.1484-1.8398-9.3477-2.082-2.6055-0.28125-5.2305-0.38281-7.8516-0.29688 3.8984 3.4609 6 7.6914 8 11.699 3.5508 7.1289 6.7109 13.469 20.23 12zm3.1289-1.1406c-2.3789-18.84 6.2383-23.141 16-28 5.5195-2.75 11.371-5.6602 16-11.262 0.18359 3.8203 0.066406 7.6484-0.35156 11.449-0.51172 4.9219-1.4688 9.6211-2.7812 12.5-2.8203 6.1875-6.6875 10.621-11.602 13.301h0.003906c-4.457 2.3008-9.4531 3.3594-14.461 3.0703 3.4062-2.3203 6.5195-5.0352 9.2812-8.0898 3.2695-3.6445 5.8594-7.8477 7.6406-12.41 0.24609-0.62891-0.066407-1.3398-0.69531-1.5859-0.62891-0.24609-1.3398 0.066407-1.5859 0.69531-1.6875 4.2969-4.1328 8.25-7.2188 11.68-3.0117 3.3242-6.4531 6.2305-10.23 8.6523z" fill-rule="evenodd"/>
<text x="0.0" y="117.5" font-size="5.0" font-weight="bold" font-family="Arbeit Regular, Helvetica, Arial-Unicode, Arial, Sans-serif" fill="#000000">Created by RAGIL HERU FITRIYAN</text><text x="0.0" y="122.5" font-size="5.0" font-weight="bold" font-family="Arbeit Regular, Helvetica, Arial-Unicode, Arial, Sans-serif" fill="#000000">from Noun Project</text></svg>