<svg xmlns="http://www.w3.org/2000/svg" xmlns:xlink="http://www.w3.org/1999/xlink" version="1.1" x="0px" y="0px" viewBox="0 0 72 90" style="enable-background:new 0 0 72 72;" xml:space="preserve"><g><path d="M68,35c-0.55,0-1,0.45-1,1c0,17.09-13.91,31-31,31S5,53.09,5,36c0-0.55-0.45-1-1-1s-1,0.45-1,1c0,18.2,14.8,33,33,33   s33-14.8,33-33C69,35.45,68.55,35,68,35z"/><path d="M15,9c-3.31,0-6,2.69-6,6s2.69,6,6,6s6-2.69,6-6S18.31,9,15,9z M15,19c-2.21,0-4-1.79-4-4s1.79-4,4-4s4,1.79,4,4   S17.21,19,15,19z"/><path d="M15,7c0.55,0,1-0.45,1-1V4c0-0.55-0.45-1-1-1s-1,0.45-1,1v2C14,6.55,14.45,7,15,7z"/><path d="M7.93,9.34c0.2,0.2,0.45,0.29,0.71,0.29s0.51-0.1,0.71-0.29c0.39-0.39,0.39-1.02,0-1.41L7.93,6.51   c-0.39-0.39-1.02-0.39-1.41,0c-0.39,0.39-0.39,1.02,0,1.41L7.93,9.34z"/><path d="M4,16h2c0.55,0,1-0.45,1-1s-0.45-1-1-1H4c-0.55,0-1,0.45-1,1S3.45,16,4,16z"/><path d="M7.93,23.49l1.41-1.41c0.39-0.39,0.39-1.02,0-1.41c-0.39-0.39-1.02-0.39-1.41,0l-1.41,1.41c-0.39,0.39-0.39,1.02,0,1.41   c0.2,0.2,0.45,0.29,0.71,0.29S7.73,23.68,7.93,23.49z"/><path d="M16,26v-2c0-0.55-0.45-1-1-1s-1,0.45-1,1v2c0,0.55,0.45,1,1,1S16,26.55,16,26z"/><path d="M22.78,23.78c0.26,0,0.51-0.1,0.71-0.29c0.39-0.39,0.39-1.02,0-1.41l-1.41-1.41c-0.39-0.39-1.02-0.39-1.41,0   c-0.39,0.39-0.39,1.02,0,1.41l1.41,1.41C22.27,23.68,22.52,23.78,22.78,23.78z"/><path d="M23,15c0,0.55,0.45,1,1,1h2c0.55,0,1-0.45,1-1s-0.45-1-1-1h-2C23.45,14,23,14.45,23,15z"/><path d="M21.36,9.64c0.26,0,0.51-0.1,0.71-0.29l1.41-1.41c0.39-0.39,0.39-1.02,0-1.41c-0.39-0.39-1.02-0.39-1.41,0l-1.41,1.41   c-0.39,0.39-0.39,1.02,0,1.41C20.85,9.54,21.11,9.64,21.36,9.64z"/><path d="M57,26c0.55,0,1-0.45,1-1c0-1.1,0.9-2,2-2s2,0.9,2,2s-0.9,2-2,2h-9c-0.55,0-1,0.45-1,1s0.45,1,1,1h9c2.21,0,4-1.79,4-4   s-1.79-4-4-4s-4,1.79-4,4C56,25.55,56.45,26,57,26z"/><path d="M59,19h6c2.21,0,4-1.79,4-4s-1.79-4-4-4s-4,1.79-4,4c0,0.55,0.45,1,1,1s1-0.45,1-1c0-1.1,0.9-2,2-2s2,0.9,2,2s-0.9,2-2,2   h-6c-0.55,0-1,0.45-1,1S58.45,19,59,19z"/><path d="M44,25h5c2.21,0,4-1.79,4-4s-1.79-4-4-4s-4,1.79-4,4c0,0.55,0.45,1,1,1s1-0.45,1-1c0-1.1,0.9-2,2-2s2,0.9,2,2s-0.9,2-2,2   h-5c-0.55,0-1,0.45-1,1S43.45,25,44,25z"/><circle cx="15" cy="15" r="5"/><path d="M68,36c0.08,0.33-1.2,0.69-1.46,0.95c-0.4,0.39-1.04,0.39-1.43-0.01c-0.38-0.39-1.01-0.37-1.4,0.01l-1.17,1.17   C61.95,38.71,61.18,39,60.41,39c-0.76,0-1.53-0.29-2.12-0.88l-1.17-1.17c-0.39-0.39-1.02-0.39-1.41,0l-1.17,1.17   c-1.18,1.17-3.08,1.17-4.25,0l-1.17-1.17c-0.39-0.39-1.02-0.39-1.41,0l-1.17,1.17c-1.18,1.17-3.08,1.17-4.25,0l-1.17-1.17   c-0.39-0.39-1.02-0.39-1.41,0l-1.17,1.17c-1.18,1.17-3.08,1.17-4.25,0l-1.17-1.17c-0.39-0.39-1.02-0.39-1.41,0l-1.17,1.17   c-1.17,1.17-3.08,1.17-4.25,0l-1.17-1.17c-0.39-0.39-1.02-0.39-1.41,0l-1.17,1.17c-1.18,1.17-3.08,1.17-4.25,0l-1.17-1.17   c-0.39-0.39-1.02-0.39-1.41,0l-1.17,1.17c-1.18,1.17-3.08,1.17-4.25,0l-1.17-1.17c-0.39-0.39-1.02-0.4-1.4-0.01   c-0.39,0.4-1.03,0.4-1.43,0.01c0,0-0.01-0.01-0.01-0.01C5.76,36.41,5.13,36,4.38,36H4v6l4,10l5,6l8,6l8,3l11,1l14-5l10-11l3-9   L68,36L68,36z M42.29,42.46l0.59-0.58c1.13-1.13,3.11-1.13,4.24,0l1.17,1.17c0.39,0.39,1.03,0.39,1.42,0l1.17-1.17   c1.17-1.17,3.07-1.17,4.24,0l1.17,1.17c0.39,0.39,1.03,0.39,1.42,0l1.17-1.17c1.13-1.13,3.11-1.13,4.24,0l0.59,0.58   c0.39,0.39,0.39,1.03,0,1.42c-0.39,0.39-1.03,0.39-1.42,0l-0.58-0.59c-0.39-0.39-1.03-0.39-1.42,0l-1.17,1.17   c-0.58,0.59-1.35,0.88-2.12,0.88s-1.54-0.29-2.12-0.88l-1.17-1.17c-0.39-0.39-1.03-0.39-1.42,0l-1.17,1.17   c-1.17,1.17-3.07,1.17-4.24,0l-1.17-1.17c-0.39-0.39-1.03-0.39-1.42,0l-0.58,0.59c-0.39,0.39-1.03,0.39-1.42,0   C41.9,43.49,41.9,42.85,42.29,42.46z M32.71,59.29c-0.39-0.39-1.03-0.39-1.42,0l-1.17,1.17c-1.17,1.17-3.07,1.17-4.24,0l-1.17-1.17   c-0.39-0.39-1.03-0.39-1.42,0l-0.58,0.59c-0.39,0.39-1.03,0.39-1.42,0c-0.39-0.39-0.39-1.03,0-1.42l0.59-0.58   c1.13-1.13,3.11-1.13,4.24,0l1.17,1.17c0.39,0.39,1.03,0.39,1.42,0l1.17-1.17c1.17-1.17,3.07-1.17,4.24,0l1.17,1.17   c0.39,0.39,1.03,0.39,1.42,0l1.17-1.17c1.13-1.13,3.11-1.13,4.24,0l0.59,0.58c0.39,0.39,0.39,1.03,0,1.42   c-0.39,0.39-1.03,0.39-1.42,0l-0.58-0.59c-0.39-0.39-1.03-0.39-1.42,0l-1.17,1.17c-0.58,0.59-1.35,0.88-2.12,0.88   s-1.54-0.29-2.12-0.88L32.71,59.29z M38.12,49.88l1.17,1.17c0.39,0.39,1.03,0.39,1.42,0l1.17-1.17c1.17-1.17,3.07-1.17,4.24,0   l1.17,1.17c0.39,0.39,1.03,0.39,1.42,0l1.17-1.17c1.13-1.13,3.11-1.13,4.24,0l0.59,0.58c0.39,0.39,0.39,1.03,0,1.42   c-0.39,0.39-1.03,0.39-1.42,0l-0.58-0.59c-0.39-0.39-1.03-0.39-1.42,0l-1.17,1.17c-0.58,0.59-1.35,0.88-2.12,0.88   s-1.54-0.29-2.12-0.88l-1.17-1.17c-0.39-0.39-1.03-0.39-1.42,0l-1.17,1.17c-1.17,1.17-3.07,1.17-4.24,0l-1.17-1.17   c-0.39-0.39-1.03-0.39-1.42,0l-0.58,0.59c-0.39,0.39-1.03,0.39-1.42,0c-0.39-0.39-0.39-1.03,0-1.42l0.59-0.58   C35.01,48.75,36.99,48.75,38.12,49.88z M13.29,44.12l0.59-0.58c1.17-1.17,3.07-1.17,4.24,0l1.17,1.17c0.39,0.39,1.03,0.39,1.42,0   l1.17-1.17c1.17-1.17,3.07-1.17,4.24,0l1.17,1.17c0.39,0.39,1.03,0.39,1.42,0l1.17-1.17c1.17-1.17,3.07-1.17,4.24,0l0.59,0.58   c0.39,0.39,0.39,1.03,0,1.42c-0.39,0.39-1.03,0.39-1.42,0l-0.58-0.59c-0.39-0.39-1.03-0.39-1.42,0l-1.17,1.17   C29.54,46.71,28.77,47,28,47s-1.54-0.29-2.12-0.88l-1.17-1.17c-0.39-0.39-1.03-0.39-1.42,0l-1.17,1.17c-1.17,1.17-3.07,1.17-4.24,0   l-1.17-1.17c-0.39-0.39-1.03-0.39-1.42,0l-0.58,0.59c-0.39,0.39-1.03,0.39-1.42,0C12.9,45.15,12.9,44.51,13.29,44.12z"/></g><text x="0" y="87" fill="#000000" font-size="5px" font-weight="bold" font-family="'Helvetica Neue', Helvetica, Arial-Unicode, Arial, Sans-serif">Created by I Putu Dicky Adi Pranatha</text><text x="0" y="92" fill="#000000" font-size="5px" font-weight="bold" font-family="'Helvetica Neue', Helvetica, Arial-Unicode, Arial, Sans-serif">from the Noun Project</text></svg>