<svg xmlns="http://www.w3.org/2000/svg" xmlns:xlink="http://www.w3.org/1999/xlink" xml:space="preserve" version="1.1" style="shape-rendering:geometricPrecision;text-rendering:geometricPrecision;image-rendering:optimizeQuality;" viewBox="0 0 333 416.25" x="0px" y="0px" fill-rule="evenodd" clip-rule="evenodd"><defs><style type="text/css">
   
    .str0 {stroke:black;stroke-width:6.94488;stroke-linecap:round;stroke-linejoin:round}
    .fil0 {fill:none}
    .fil1 {fill:black}
   
  </style></defs><g><path class="fil0 str0" d="M-247 -1603c-54,-7 -118,-9 -160,-34 -23,-14 -41,-34 -50,-66 -8,-32 17,-44 27,-47 10,-3 97,-20 160,-50 135,-64 215,139 137,250 0,0 70,93 90,227 0,0 10,80 -117,86 0,0 -197,4 -167,-173 0,0 10,-93 80,-153l0 -40z"/><path class="fil0 str0" d="M-129 -1223c0,0 96,-13 101,-89 0,0 76,219 -24,314 -99,96 -261,20 -261,-109 0,0 9,-73 74,-87 -143,214 288,257 110,-29z"/><path class="fil0 str0" d="M-237 -1830l34 -67c0,0 310,40 120,384l-14 -50c0,0 94,-264 -140,-267z"/><ellipse class="fil0 str0" transform="matrix(0.953026 -0.302889 0.302889 0.953026 -243.335 -1743.33)" rx="30" ry="13"/><path class="fil0 str0" d="M560 -1567c-37,-236 362,-291 490,-120 197,264 -474,208 -490,120z"/><path class="fil0 str0" d="M947 -1467c0,0 26,-43 46,4 0,0 -3,203 114,250 0,0 18,51 -27,40 -53,-14 -123,-100 -133,-294z"/><path class="fil0 str0" d="M870 -1467c0,0 27,-39 53,0 0,0 5,172 30,207 25,35 84,117 44,203 0,0 -30,40 -50,-6 0,0 30,-70 -10,-124 -40,-53 -67,-143 -67,-280z"/><path class="fil0 str0" d="M1667 -1513c0,0 -124,-94 -17,-307 107,-213 17,80 33,97 17,16 57,40 57,70 0,30 18,25 -26,140l-47 0z"/><path class="fil0 str0" d="M1707 -1727l40 44c0,0 20,-57 -14,-107 0,0 -4,58 -26,63z"/><path class="fil0 str0" d="M1675 -1488l40 -12c0,0 30,18 30,42l-3 43c0,0 -70,-23 -67,-73z"/><path class="fil0 str0" d="M1780 -1570c0,0 30,-60 47,-167 0,0 28,123 46,170 51,-13 52,64 17,64 0,0 23,43 10,130l23 -10 50 43c0,0 10,27 -16,20l-37 -33 -20 13 0 30 13 -7 54 44c0,0 -4,30 -24,16l-33 -33 -20 17 -2 23 12 -3 50 46c0,0 -3,27 -20,14l-37 -30 -16 13c0,0 3,23 -24,70 0,0 60,45 70,72 10,26 -3,20 -11,23 -9,3 -55,-12 -49,48 0,0 -10,32 -36,32 -27,0 -37,-33 -37,-33 0,0 10,-55 -53,-42 0,0 -27,0 -7,-30 20,-30 68,-70 68,-70l-21 -73 -17 -14 -40 35c0,0 -23,9 -15,-16l45 -45 17 3 -2 -23 -22 -17 -38 33c0,0 -20,12 -17,-15l49 -48 20 13 0 -35 -22 -11 -38 31c0,0 -24,9 -15,-16l46 -45 29 13c0,0 -13,-73 6,-130 -47,-13 -33,-83 17,-70z"/><path class="fil0 str0" d="M1993 -1513c0,0 124,-94 17,-307 -107,-213 -17,80 -33,97 -17,16 -57,40 -57,70 0,30 -18,25 26,140l47 0z"/><path class="fil0 str0" d="M1953 -1727l-40 44c0,0 -20,-57 14,-107 0,0 4,58 26,63z"/><path class="fil0 str0" d="M1985 -1488l-40 -12c0,0 -30,18 -30,42l3 43c0,0 70,-23 67,-73z"/><circle class="fil0 str0" cx="1767" cy="-1537" r="13"/><circle class="fil0 str0" cx="1878" cy="-1537" r="13"/><path class="fil0 str0" d="M1754 -1393l148 0c0,0 -79,53 -148,0z"/><path class="fil0 str0" d="M1757 -1307c0,0 80,27 143,-3 -19,57 -128,47 -143,3z"/><path class="fil0 str0" d="M1767 -1250c0,0 60,20 121,0 -13,49 -109,46 -121,0z"/><path class="fil0 str0" d="M527 1253c0,0 -140,-33 -114,-206 0,0 154,-67 220,103 0,0 -70,0 -106,103z"/><path class="fil0 str0" d="M800 1137c0,0 57,3 70,30 0,0 50,-50 130,-87 130,-60 -225,-81 -200,57z"/><path class="fil0 str0" d="M519 1435c0,0 -3,57 22,73 0,0 -55,45 -99,120 -73,124 -58,-232 77,-193z"/><path class="fil0 str0" d="M543 1303l87 30 83 -80 -33 -90c0,0 -63,14 -93,44 -30,30 -44,96 -44,96z"/><path class="fil0 str0" d="M707 1160l33 83 113 34 54 -57c0,0 -91,-81 -200,-60z"/><path class="fil0 str0" d="M873 1297l54 -57c0,0 80,73 96,197l-120 -30 -30 -110z"/><path class="fil0 str0" d="M537 1330l86 30 30 117 -53 50c0,0 -78,-53 -63,-197z"/><path class="fil0 str0" d="M618 1547l52 -52 115 32 32 118c0,0 -85,5 -199,-98z"/><path class="fil0 str0" d="M847 1650c0,0 180,-10 176,-180l-126 -33 -84 83 34 130z"/><polygon class="fil0 str0" points="653,1357 733,1277 837,1310 867,1413 790,1490 687,1463 "/><path class="fil0 str0" d="M1030 1347c0,0 27,43 20,73 0,0 160,7 170,-50 10,-57 -227,-73 -190,-23z"/><path class="fil0 str0" d="M720 1654c0,0 44,25 74,18 0,0 10,160 -46,171 -57,11 -78,-225 -28,-189z"/><path class="fil0 str0" d="M-657 1003c9,-40 628,16 510,280l-23 30 30 27c0,0 187,-13 180,-163 0,0 47,-60 70,6 0,0 30,157 -190,224 0,0 117,20 217,-27 0,0 73,-3 36,63 0,0 -150,70 -303,27l177 177c0,0 16,66 -54,56l-180 -176c0,0 47,136 -26,303 0,0 -60,33 -64,-33 0,0 47,-124 27,-224 0,0 -47,207 -230,194 0,0 -57,-37 3,-74 0,0 134,27 157,-180l-23 -26 -24 16c-231,168 -311,-399 -290,-500z"/><circle class="fil0 str0" cx="-293" cy="1473" r="20"/><circle class="fil0 str0" cx="-183" cy="1363" r="20"/><path class="fil0 str0" d="M700 -1467c0,0 -26,-43 -46,4 0,0 3,203 -114,250 0,0 -18,51 27,40 53,-14 123,-100 133,-294z"/><path class="fil0 str0" d="M777 -1467c0,0 -27,-39 -53,0 0,0 -5,172 -30,207 -25,35 -84,117 -44,203 0,0 30,40 50,-6 0,0 -30,-70 10,-124 40,-53 67,-143 67,-280z"/><path class="fil1" d="M244 41c0,0 -41,-11 -57,30 0,0 -7,11 -8,-2 0,0 12,-48 70,-36 0,0 7,6 -5,8zm-22 134c151,-43 65,-171 -5,-154 -74,12 -53,115 -53,115 -34,-1 -20,31 -20,31 -54,29 -107,7 -107,7 -18,0 -10,16 -10,16 25,21 92,11 92,11 0,0 -56,36 -59,54 -3,18 16,12 16,12 23,-39 69,-55 69,-55l-46 79c-2,21 16,12 16,12l50 -80c5,52 -19,87 -19,87 4,22 20,10 20,10 24,-35 22,-79 22,-79 6,40 47,79 47,79 19,5 16,-15 16,-15 -53,-49 -45,-100 -45,-100 37,-3 16,-30 16,-30zm-57 -21c1,3 -2,7 -5,8 -4,1 -8,-1 -9,-5 -1,-4 1,-8 5,-9 4,-1 8,2 9,6zm37 35c-1,-3 2,-7 6,-8 3,-1 7,1 8,5 1,4 -1,8 -5,9 -4,1 -8,-2 -9,-6z"/></g><text x="0" y="348" fill="#000000" font-size="5px" font-weight="bold" font-family="'Helvetica Neue', Helvetica, Arial-Unicode, Arial, Sans-serif">Created by BGBOXXX Design</text><text x="0" y="353" fill="#000000" font-size="5px" font-weight="bold" font-family="'Helvetica Neue', Helvetica, Arial-Unicode, Arial, Sans-serif">from the Noun Project</text></svg>