<svg xmlns="http://www.w3.org/2000/svg" xmlns:xlink="http://www.w3.org/1999/xlink" version="1.1" preserveAspectRatio="none" x="0px" y="0px" viewBox="0 0 90 112.5"><defs><g id="a"><path fill="#000000" stroke="none" d=" M 48.2 9.65 L 49.65 6.6 Q 48.75 6.2 47.85 5.9 45.6 5.15 43.35 5.15 29.25 7.15 34.05 21.15 35.64921875 26.8681640625 35.55 32.6 L 26.85 26.75 Q 29.05 38.45 24.55 48.8 22.85 52.6 21.75 57 L 29.7 55 Q 28.4978515625 59.779296875 28.35 65.5 28.35 73.65 34.1 79.4 39.85 85.15 47.95 85.15 48.25 85.15 48.5 85.15 48.7 85.15 48.85 85.15 50.55 85.15 52.05 84.85 55.7 84 58.6 81.1 62.65 77.1 62.65 71.4 62.65 71.3 62.65 71.15 62.65 71.1 62.65 71.05 62.65 70.95 62.65 70.8 62.65 68.75 61.3 67.25 61.2 67.15 61.1 67.05 59.55 65.5 57.35 65.5 55.15 65.5 53.65 67.05 52.1 68.6 52.1 70.8 52.1 70.9 52.1 71 L 52.1 71.05 Q 52.1 71.1 52.1 71.15 52.15 72.4 53 73.2 53.95 74.15 55.2 74.15 56.45 74.15 57.35 73.2 58.2 72.45 58.3 71.45 58.25 71.85 57.8 72.25 57.4 72.75 56.75 72.75 56.15 72.75 55.65 72.25 55.2 71.8 55.2 71.15 55.2 70.05 55.8 69.3 56.5 68.55 57.45 68.55 58.4 68.55 59.05 69.3 59.7 70.05 59.7 71.1 L 59.7 71.15 Q 59.7 73.9 57.75 75.85 55.8 77.8 53.05 77.8 53 77.8 52.9 77.8 52.8 77.8 52.65 77.8 48.7 77.8 45.95 75 43.35 72.45 43.15 68.8 43.45 59.9 49.1 56.75 59.4 51.05 58.55 42.25 58.1 31.3 49.1 24.85 47.3 22.95 60.2 22.15 L 60.2 18.4 54.1 15.35 Q 52.4 12.9 52.8 9.65 L 48.2 9.65 M 50.45 16.55 Q 49.85 16.55 49.5 16.15 49 15.8 49 15.2 49 14.65 49.5 14.2 49.85 13.85 50.45 13.85 50.95 13.85 51.45 14.2 51.8 14.65 51.8 15.2 51.8 15.8 51.45 16.15 50.95 16.55 50.45 16.55 Z"/></g></defs><g transform="matrix( 1, 0, 0, 1, 0,0) "><use xlink:href="#a"/></g><text x="0" y="105" fill="#000000" font-size="5px" font-weight="bold" font-family="'Helvetica Neue', Helvetica, Arial-Unicode, Arial, Sans-serif">Created by iconpacks</text><text x="0" y="110" fill="#000000" font-size="5px" font-weight="bold" font-family="'Helvetica Neue', Helvetica, Arial-Unicode, Arial, Sans-serif">from the Noun Project</text></svg>