<svg xmlns="http://www.w3.org/2000/svg" xmlns:xlink="http://www.w3.org/1999/xlink" version="1.1" x="0px" y="0px" viewBox="0 0 90 112.5" enable-background="new 0 0 90 90" xml:space="preserve"><path d="M66.953,59.954c3.03-1.329,5.767-2.938,7.971-4.419c0.402-0.27,0.78-0.533,1.145-0.792l-1.262,8.848l6.896-13.924  L80.911,48.6c-0.064-0.108-0.139-0.221-0.226-0.339c-0.029-0.04-0.06-0.08-0.092-0.121c-0.066-0.084-0.139-0.171-0.217-0.26  l-9.9-13.321l3.251,8.561c-0.777-0.446-1.513-0.835-2.236-1.165l-2.874-9.787l0,0v0l-3.43,4.723l-1.018-3.082  c1.523-0.676,3.016-1.482,4.474-2.424c0.18-0.11,0.898-0.599,0.762-1.355c-0.152-0.844-1.196-1.137-2.089-1.299  c-0.484-0.087-1.198-0.231-2.102-0.412c-3.782-0.759-10.821-2.173-14.836-2.173c-0.086,0-0.17,0.001-0.254,0.002  c-1.21,0.019-2.108,0.065-2.849,0.149l-2.771-2.738l-1.103-1.09l-0.057,1.55l-0.139,3.785c-1.575,0.517-6.759,2.237-9.197,3.274  l-4.408-5.93l-2.925-3.935l1.741,4.584l2.534,6.671l-0.745,5.225l-0.6,4.205l1.885-3.806l2.61-5.269  c1.454,0.648,5.385,2.185,11.547,3.017l-4.243,3.995l-3.497,3.292l4.275-2.19l8.951-4.585c0.037-0.001,0.081-0.001,0.131-0.001  c0.098,0,0.213,0.001,0.344,0.003c0.178,0.002,0.383,0.004,0.615,0.004c2.502,0,4.952-0.313,7.34-0.933l4.681,2.313l0.242,0.119  l-1.989,2.739c-0.137,0.01-0.277,0.021-0.417,0.033c-0.282,0.024-0.571,0.051-0.868,0.082c-0.148,0.015-0.299,0.032-0.451,0.049  c-0.609,0.069-1.25,0.152-1.928,0.25c-0.677,0.098-1.391,0.209-2.146,0.335c-0.377,0.063-0.765,0.129-1.163,0.199  c-0.398,0.07-0.807,0.143-1.228,0.22c-0.978,0.179-2.026,0.405-3.129,0.671c-0.441,0.106-0.891,0.219-1.349,0.337  c-0.458,0.118-0.924,0.243-1.397,0.373c-0.473,0.13-0.954,0.265-1.44,0.405c-0.487,0.14-0.98,0.285-1.478,0.435  c-0.44,0.132-0.884,0.268-1.331,0.406c-0.139,0.043-0.279,0.087-0.419,0.13c-0.684,0.214-1.376,0.434-2.074,0.662  c-0.78,0.254-1.567,0.515-2.358,0.782c-0.791,0.267-1.587,0.54-2.384,0.817c-0.335,0.117-0.67,0.234-1.005,0.352  c-0.462,0.163-0.925,0.327-1.387,0.492c-0.336,0.12-0.672,0.241-1.007,0.362c-0.389,0.14-0.777,0.281-1.164,0.422  c-0.141,0.051-0.282,0.103-0.423,0.154c-0.648,0.237-1.293,0.475-1.933,0.712c-0.167,0.062-0.334,0.124-0.501,0.186  c-0.421,0.157-0.841,0.314-1.257,0.47c-0.256,0.096-0.511,0.192-0.764,0.288c-0.323,0.122-0.644,0.244-0.964,0.365  c-0.363,0.138-0.723,0.275-1.08,0.411c-0.656,0.251-1.302,0.499-1.935,0.743c-0.292,0.113-0.581,0.224-0.868,0.335  c-2.426,0.94-4.651,1.816-6.551,2.563c-0.294,0.116-0.578,0.227-0.856,0.336c-1.625,0.638-2.971,1.163-3.945,1.526  c-0.207,0.077-0.404,0.153-0.589,0.228c-0.093,0.038-0.183,0.075-0.271,0.112c-0.263,0.111-0.503,0.219-0.722,0.325  c-0.073,0.035-0.143,0.07-0.212,0.105c-0.409,0.208-0.734,0.407-0.989,0.595c-0.297,0.219-0.499,0.424-0.625,0.615  c-0.108,0.164-0.161,0.317-0.172,0.459c-0.002,0.024-0.002,0.047-0.002,0.07c0.019,0.856,1.561,1.305,1.561,1.305  c0.376,0.124,0.751,0.245,1.125,0.363c0.12,0.038,0.24,0.075,0.36,0.112c0.255,0.08,0.51,0.159,0.764,0.236  c0.137,0.042,0.274,0.082,0.41,0.123c0.24,0.072,0.479,0.142,0.717,0.211c0.136,0.039,0.271,0.079,0.407,0.117  c0.253,0.072,0.505,0.142,0.757,0.212c0.114,0.032,0.229,0.064,0.343,0.095c0.363,0.099,0.725,0.195,1.084,0.288  c0.016,0.004,0.032,0.008,0.049,0.012c0.344,0.089,0.686,0.175,1.027,0.259c0.117,0.029,0.234,0.057,0.351,0.085  c0.241,0.058,0.482,0.116,0.721,0.172c0.132,0.031,0.264,0.061,0.396,0.091c0.228,0.052,0.455,0.103,0.681,0.153  c0.13,0.029,0.259,0.057,0.389,0.085c0.241,0.052,0.48,0.103,0.719,0.152c0.109,0.023,0.219,0.046,0.328,0.068  c0.344,0.07,0.687,0.139,1.027,0.204c0.033,0.006,0.065,0.012,0.097,0.018c0.31,0.059,0.618,0.117,0.925,0.172  c0.114,0.021,0.226,0.04,0.34,0.06c0.226,0.04,0.452,0.079,0.677,0.117c0.127,0.021,0.253,0.042,0.379,0.063  c0.214,0.035,0.427,0.069,0.64,0.103c0.124,0.019,0.247,0.039,0.37,0.058c0.229,0.035,0.456,0.068,0.683,0.101  c0.102,0.015,0.204,0.03,0.305,0.044c0.325,0.046,0.649,0.09,0.97,0.132c0.038,0.005,0.076,0.009,0.114,0.014  c0.284,0.037,0.567,0.072,0.848,0.105c0.108,0.013,0.216,0.025,0.323,0.037c0.212,0.024,0.424,0.048,0.634,0.071  c0.119,0.013,0.237,0.025,0.355,0.037c0.202,0.021,0.403,0.041,0.603,0.06c0.115,0.011,0.23,0.022,0.344,0.033  c0.218,0.02,0.434,0.039,0.65,0.058c0.091,0.008,0.183,0.016,0.274,0.024c0.305,0.025,0.608,0.049,0.909,0.07  c0.042,0.003,0.084,0.005,0.126,0.008c0.259,0.018,0.517,0.035,0.774,0.051c0.1,0.006,0.198,0.011,0.298,0.017  c0.199,0.012,0.398,0.023,0.596,0.033c0.109,0.006,0.217,0.011,0.325,0.016c0.19,0.009,0.378,0.017,0.566,0.025  c0.105,0.004,0.21,0.009,0.314,0.012c0.206,0.008,0.41,0.014,0.613,0.02c0.081,0.002,0.163,0.005,0.243,0.007  c0.283,0.008,0.564,0.014,0.843,0.019c0.04,0.001,0.079,0.001,0.119,0.002c0.238,0.004,0.475,0.007,0.71,0.008  c0.092,0.001,0.183,0.001,0.274,0.001c0.119,0,0.238,0.002,0.356,0.002c0.05,0,0.098-0.001,0.147-0.001  c0.135,0,0.269-0.001,0.403-0.002l0.889,4.17l0,0v0l2.618-2.225l2.593-2.203c0.011-0.001,0.023-0.002,0.034-0.003  c0.226-0.018,0.449-0.037,0.67-0.056c0.041-0.004,0.083-0.007,0.124-0.01c0.26-0.023,0.516-0.047,0.769-0.072  c0.083-0.008,0.163-0.017,0.245-0.025c0.171-0.017,0.341-0.035,0.508-0.053c0.096-0.01,0.191-0.021,0.286-0.032  c0.151-0.017,0.302-0.034,0.45-0.051c0.096-0.011,0.192-0.023,0.287-0.034c0.145-0.017,0.288-0.035,0.43-0.053  c0.093-0.012,0.185-0.023,0.276-0.035c0.147-0.019,0.291-0.038,0.434-0.057c0.081-0.011,0.163-0.022,0.243-0.033  c0.187-0.026,0.37-0.052,0.552-0.078c0.032-0.005,0.066-0.009,0.098-0.014c0.211-0.031,0.418-0.062,0.622-0.093  c0.074-0.011,0.145-0.023,0.218-0.034c0.131-0.02,0.262-0.041,0.39-0.062c0.081-0.013,0.16-0.026,0.239-0.039  c0.117-0.019,0.233-0.038,0.346-0.057c0.08-0.013,0.159-0.027,0.238-0.04c0.111-0.019,0.221-0.038,0.329-0.057  c0.074-0.013,0.149-0.026,0.222-0.039c0.113-0.02,0.223-0.04,0.333-0.06c0.064-0.012,0.129-0.023,0.191-0.035  c0.145-0.027,0.286-0.053,0.425-0.079c0.023-0.004,0.047-0.009,0.07-0.013c0.16-0.03,0.316-0.06,0.468-0.09  c0.058-0.011,0.114-0.022,0.171-0.034c0.095-0.019,0.189-0.037,0.281-0.055c0.061-0.012,0.12-0.024,0.18-0.036  c0.084-0.017,0.166-0.033,0.247-0.05c0.06-0.012,0.119-0.024,0.177-0.036c0.076-0.015,0.15-0.031,0.223-0.046  c0.06-0.012,0.12-0.025,0.178-0.037c0.056-0.012,0.11-0.023,0.164-0.034c0.296-0.061,0.568-0.118,0.81-0.167  c0.021-0.004,0.04-0.008,0.061-0.012c0.075-0.015,0.148-0.03,0.217-0.044c0.029-0.006,0.056-0.011,0.084-0.017  c0.058-0.011,0.113-0.022,0.167-0.032c0.03-0.006,0.058-0.011,0.086-0.016c0.05-0.009,0.097-0.018,0.143-0.026  c0.025-0.004,0.051-0.009,0.075-0.013c0.047-0.008,0.09-0.015,0.132-0.021c0.018-0.003,0.038-0.006,0.055-0.009  c0.057-0.008,0.111-0.016,0.158-0.021l26.377,6.103L66.953,59.954z M58.912,31.2c-0.3,0-0.544-0.244-0.544-0.544  c0-0.301,0.244-0.544,0.544-0.544c0.301,0,0.545,0.244,0.545,0.544C59.457,30.956,59.213,31.2,58.912,31.2z M32.142,57.197  c-0.713,0-1.292-0.578-1.292-1.291c0-0.713,0.578-1.292,1.292-1.292c0.713,0,1.291,0.578,1.291,1.292  C33.433,56.619,32.855,57.197,32.142,57.197z"/><text x="0" y="105" fill="#000000" font-size="5px" font-weight="bold" font-family="'Helvetica Neue', Helvetica, Arial-Unicode, Arial, Sans-serif">Created by CHOI.D</text><text x="0" y="110" fill="#000000" font-size="5px" font-weight="bold" font-family="'Helvetica Neue', Helvetica, Arial-Unicode, Arial, Sans-serif">from the Noun Project</text></svg>