<svg xmlns="http://www.w3.org/2000/svg" xmlns:xlink="http://www.w3.org/1999/xlink" xmlns:serif="http://www.serif.com/" viewBox="0 0 64 80" version="1.1" xml:space="preserve" style="" x="0px" y="0px" fill-rule="evenodd" clip-rule="evenodd" stroke-linejoin="round" stroke-miterlimit="2"><g transform="matrix(1.10204,0,0,1.10204,-3.70467,-4.01839)"><g transform="matrix(0.934607,0,0,0.934607,2.49396,2.77769)"><path d="M56.026,17.087C56.733,16.599 59.075,14.796 59.348,12.112C59.566,9.975 58.441,7.334 54.3,4.328C54.268,4.32 54.225,4.311 54.177,4.307C54.141,4.305 54.097,4.292 54.063,4.315C54.049,4.325 54.054,4.346 54.049,4.371C54.04,4.418 54.037,4.473 54.04,4.536C54.051,4.853 54.177,5.31 54.465,5.974C55.073,7.371 54.515,8.414 53.714,9.432C52.794,10.599 51.458,11.719 52.503,13.738C52.605,13.936 52.564,14.177 52.404,14.33C52.243,14.483 52,14.512 51.808,14.401C51.808,14.401 49.611,13.126 47.529,14.514C47.512,14.526 47.494,14.536 47.475,14.545C47.475,14.545 44.71,15.964 40.764,14.118C41.452,15.74 43.013,18.561 45.855,19.646C47.599,20.311 49.823,20.3 52.624,18.973C52.728,18.924 52.84,18.914 52.944,18.937C52.895,18.616 52.801,18.301 52.65,17.999C52.527,17.752 52.627,17.452 52.874,17.328C53.121,17.205 53.422,17.305 53.545,17.552C54.176,18.814 54.049,20.259 53.642,21.54C53.064,23.364 51.935,24.835 51.935,24.835L51.905,24.871C43.487,33.958 31.33,28.627 31.33,28.627L31.203,28.546C28.455,26.156 24.869,27.967 24.869,27.967L24.842,27.979C18.434,30.725 12.918,28.986 12.673,28.906C6.785,27.131 4.862,28.759 4.296,29.58C6.003,29.675 8.057,29.993 10.223,30.434C17.743,31.968 26.625,34.971 26.625,34.971C26.886,35.059 27.027,35.343 26.938,35.605C26.85,35.866 26.566,36.007 26.305,35.918C26.305,35.918 17.488,32.937 10.023,31.414C6.991,30.796 4.187,30.413 2.311,30.591C2.121,30.884 1.756,31.601 1.989,32.53C2.343,33.946 3.968,35.718 8.833,37.442C8.932,37.477 9.018,37.543 9.078,37.63C9.078,37.63 9.23,37.852 9.523,38.242C11.089,37.83 17.502,36.568 25.906,40.712C26.006,40.762 26.087,40.844 26.136,40.945C26.136,40.945 30.231,49.525 39.298,49.368C39.068,48.618 38.967,48.153 38.967,48.153C38.908,47.883 39.08,47.617 39.349,47.558C39.619,47.499 39.885,47.67 39.944,47.94C39.944,47.94 40.706,51.428 42.79,54.62C44.15,56.704 46.078,58.671 48.754,59.399C51.652,60.186 55.396,59.509 60.212,56.084C60.212,56.084 63.1,54.045 61.695,51.306C60.62,52.28 57.669,54.695 52.652,56.947C52.401,57.06 52.104,56.948 51.991,56.696C51.878,56.444 51.991,56.148 52.243,56.035C53.42,55.507 54.479,54.97 55.424,54.445C47.397,53.601 44.958,46.256 44.958,46.256C44.87,45.994 45.012,45.711 45.274,45.624C45.534,45.537 45.815,45.676 45.904,45.934L45.908,45.945C45.948,46.061 46.634,48.008 48.393,49.901C52.736,47.647 55.602,44.979 57.396,42.137C60.325,37.497 60.386,32.405 59.419,27.966C57.952,21.238 54.122,15.992 54.122,15.992C53.959,15.769 54.008,15.456 54.231,15.293C54.454,15.131 54.767,15.179 54.93,15.402C54.93,15.402 55.376,16.013 56.026,17.087Z"/></g><g transform="matrix(0.934607,0,0,0.934607,2.49396,2.77769)"><path d="M17.361,47.592C17.332,47.626 17.297,47.657 17.258,47.683C17.258,47.683 15.062,49.124 13.016,48.246C12.451,48.004 12.131,48.195 11.721,48.353C10.869,48.682 9.739,49.051 6.848,47.506C6.721,47.511 6.546,47.527 6.377,47.571C6.3,47.592 6.182,47.654 6.146,47.674C6.152,47.698 6.164,47.748 6.18,47.785C6.222,47.876 6.289,47.978 6.381,48.094C6.817,48.64 7.743,49.401 9.452,50.483C9.475,50.497 9.498,50.514 9.518,50.532C9.518,50.532 16.271,56.577 23.416,51.433C22.717,51.086 22.037,50.715 21.377,50.326C19.939,49.48 18.596,48.549 17.361,47.592Z"/></g><g transform="matrix(0.934607,0,0,0.934607,2.49396,2.77769)"><path d="M39.616,50.338C39.57,50.354 39.521,50.363 39.469,50.365C30.434,50.612 25.959,42.764 25.315,41.537C17.909,37.931 12.15,38.682 10.196,39.109C11.298,40.49 13.182,42.669 15.695,44.907C14.701,42.828 14.869,41.143 14.869,41.143C14.895,40.868 15.139,40.666 15.413,40.692C15.688,40.717 15.891,40.961 15.865,41.236C15.865,41.236 15.559,44.853 19.341,47.781C19.381,47.812 19.416,47.849 19.444,47.889C20.221,48.436 21.036,48.965 21.884,49.465C27.016,52.486 33.4,54.41 40.468,52.452C40.118,51.687 39.836,50.964 39.616,50.338ZM23.325,43.461C23.325,43.461 23.914,46.756 28.258,49.759C28.485,49.916 28.796,49.859 28.953,49.632C29.11,49.405 29.053,49.094 28.826,48.937C24.894,46.218 24.308,43.276 24.308,43.276C24.257,43.004 23.995,42.826 23.724,42.877C23.453,42.928 23.274,43.19 23.325,43.461ZM18.539,41.255C18.539,41.255 19.019,44.911 21.704,47.396C21.906,47.584 22.223,47.571 22.41,47.369C22.598,47.166 22.586,46.85 22.383,46.662C19.963,44.422 19.531,41.124 19.531,41.124C19.495,40.851 19.243,40.658 18.97,40.694C18.696,40.73 18.503,40.981 18.539,41.255Z"/></g></g><text x="0" y="79" fill="#000000" font-size="5px" font-weight="bold" font-family="'Helvetica Neue', Helvetica, Arial-Unicode, Arial, Sans-serif">Created by HAMEL KHALED</text><text x="0" y="84" fill="#000000" font-size="5px" font-weight="bold" font-family="'Helvetica Neue', Helvetica, Arial-Unicode, Arial, Sans-serif">from the Noun Project</text></svg>